<svg width="382" height="157" viewBox="0 0 382 157" fill="none" xmlns="http://www.w3.org/2000/svg">
<g clip-path="url(#clip0_3410_3106)">
<path d="M171.912 121.138C171.576 121.138 171.296 121.045 171.072 120.858C170.885 120.672 170.792 120.429 170.792 120.13C170.792 119.869 170.867 119.645 171.016 119.458C171.165 119.272 171.427 119.104 171.8 118.954L174.096 118.506C174.581 118.357 174.917 118.096 175.104 117.722C175.328 117.312 175.44 116.752 175.44 116.042V46.3222C175.44 45.8742 175.365 45.5568 175.216 45.3702C175.067 45.1462 174.805 44.9968 174.432 44.9222L171.8 44.8662C171.464 44.7915 171.221 44.6795 171.072 44.5302C170.96 44.3435 170.904 44.1195 170.904 43.8582C170.904 43.5968 170.997 43.3728 171.184 43.1862C171.371 42.9995 171.651 42.8315 172.024 42.6822L188.88 37.8102C189.515 37.6235 189.981 37.4928 190.28 37.4182C190.579 37.3435 190.896 37.3062 191.232 37.3062C191.643 37.3062 191.941 37.4368 192.128 37.6982C192.352 37.9222 192.464 38.2395 192.464 38.6502V116.042C192.464 116.789 192.557 117.368 192.744 117.778C192.968 118.152 193.341 118.413 193.864 118.562L196.16 119.066C196.72 119.328 197 119.682 197 120.13C197 120.802 196.645 121.138 195.936 121.138H171.912ZM189.384 101.314L209.992 81.2662C211.597 79.6982 212.157 78.2048 211.672 76.7862C211.224 75.3675 209.992 74.4155 207.976 73.9302L205.96 73.4262C205.624 73.3142 205.4 73.1835 205.288 73.0342C205.176 72.8475 205.12 72.6608 205.12 72.4742C205.12 72.1008 205.232 71.8395 205.456 71.6902C205.68 71.5035 205.979 71.4102 206.352 71.4102H227.632C228.005 71.4102 228.304 71.5035 228.528 71.6902C228.752 71.8395 228.864 72.0822 228.864 72.4182C228.864 72.7168 228.752 72.9782 228.528 73.2022C228.304 73.4262 227.875 73.5942 227.24 73.7062C224.477 74.3035 221.901 75.2555 219.512 76.5622C217.16 77.8688 214.864 79.6422 212.624 81.8822L190.504 103.274L189.384 101.314ZM207.808 84.7382L226.176 116.098C226.661 116.92 227.147 117.517 227.632 117.89C228.117 118.264 228.715 118.6 229.424 118.898C229.872 119.16 230.152 119.384 230.264 119.57C230.413 119.757 230.488 119.981 230.488 120.242C230.488 120.504 230.395 120.728 230.208 120.914C230.021 121.064 229.741 121.138 229.368 121.138H203.16C202.861 121.138 202.6 121.045 202.376 120.858C202.189 120.672 202.096 120.429 202.096 120.13C202.096 119.906 202.152 119.72 202.264 119.57C202.376 119.384 202.581 119.234 202.88 119.122L204.952 118.674C205.773 118.45 206.259 118.114 206.408 117.666C206.595 117.218 206.445 116.584 205.96 115.762L195.544 96.6662L207.808 84.7382ZM252.162 92.3542C252.162 87.4262 252.871 83.3382 254.29 80.0902C255.708 76.8422 257.538 74.3968 259.778 72.7542C262.055 71.1115 264.444 70.2902 266.946 70.2902C269.932 70.2902 272.21 71.2422 273.778 73.1462C275.383 75.0502 276.186 77.8875 276.186 81.6582C276.186 85.1302 275.402 87.7062 273.834 89.3862C272.266 91.0662 270.268 91.9062 267.842 91.9062C265.564 91.9062 263.884 91.3088 262.802 90.1142C261.719 88.8822 261.14 87.1088 261.066 84.7942L260.954 82.7782C260.954 81.8075 260.748 81.0608 260.338 80.5382C259.964 79.9782 259.33 79.6982 258.434 79.6982C257.5 79.6982 256.623 80.1648 255.802 81.0982C255.018 81.9942 254.383 83.3942 253.898 85.2982C253.412 87.2022 253.17 89.6102 253.17 92.5222L252.162 92.3542ZM252.946 72.1382L253.17 88.7142V115.65C253.17 116.285 253.3 116.826 253.562 117.274C253.86 117.722 254.29 118.002 254.85 118.114L259.946 119.01C260.356 119.085 260.636 119.216 260.786 119.402C260.935 119.589 261.01 119.832 261.01 120.13C261.01 120.429 260.898 120.672 260.674 120.858C260.487 121.045 260.188 121.138 259.778 121.138H232.73C232.319 121.138 232.002 121.045 231.778 120.858C231.591 120.634 231.498 120.373 231.498 120.074C231.498 119.85 231.572 119.645 231.722 119.458C231.908 119.234 232.17 119.066 232.506 118.954L234.746 118.506C235.268 118.357 235.623 118.114 235.81 117.778C236.034 117.405 236.146 116.901 236.146 116.266V79.0822C236.146 78.5968 236.071 78.2422 235.922 78.0182C235.772 77.7568 235.511 77.5888 235.138 77.5142L232.338 77.4582C232.076 77.3835 231.871 77.2715 231.722 77.1222C231.572 76.9355 231.498 76.7302 231.498 76.5062C231.498 76.2448 231.591 76.0208 231.778 75.8342C231.964 75.6102 232.263 75.4235 232.674 75.2742L249.698 71.0742C250.22 70.8875 250.631 70.7755 250.93 70.7382C251.266 70.6635 251.564 70.6262 251.826 70.6262C252.199 70.6262 252.46 70.7568 252.61 71.0182C252.796 71.2422 252.908 71.6155 252.946 72.1382ZM300.476 119.85C302.716 119.85 304.452 119.29 305.684 118.17C306.953 117.05 307.588 115.613 307.588 113.858C307.588 112.589 307.289 111.432 306.692 110.386C306.094 109.341 305.068 108.37 303.612 107.474C302.156 106.578 300.121 105.72 297.508 104.898C292.692 103.33 288.921 101.65 286.196 99.8582C283.47 98.0288 281.548 95.9755 280.428 93.6982C279.345 91.4209 278.804 88.8075 278.804 85.8582C278.804 80.8928 280.484 77.0475 283.844 74.3222C287.204 71.5968 291.814 70.2342 297.676 70.2342C299.99 70.2342 301.876 70.4582 303.332 70.9062C304.825 71.3168 305.982 71.7275 306.804 72.1382C307.662 72.5488 308.26 72.7542 308.596 72.7542C309.044 72.7542 309.753 72.5488 310.724 72.1382C311.694 71.7275 312.665 71.3168 313.636 70.9062C314.644 70.4582 315.353 70.2342 315.764 70.2342C316.062 70.2342 316.342 70.3275 316.604 70.5142C316.865 70.6635 317.052 70.9995 317.164 71.5222L319.628 86.4742C319.814 87.1462 319.852 87.6875 319.74 88.0982C319.665 88.5088 319.478 88.7888 319.18 88.9382C318.844 89.0875 318.526 89.1062 318.228 88.9942C317.929 88.8448 317.649 88.5835 317.388 88.2102C315.073 84.2155 312.908 81.0795 310.892 78.8022C308.913 76.5248 306.916 74.9195 304.9 73.9862C302.921 73.0155 300.793 72.5302 298.516 72.5302C296.089 72.5302 294.241 73.1275 292.972 74.3222C291.74 75.4795 291.124 77.0288 291.124 78.9702C291.124 80.3515 291.441 81.6022 292.076 82.7222C292.748 83.8422 293.942 84.8875 295.66 85.8582C297.377 86.7915 299.822 87.6875 302.996 88.5462C307.102 89.7035 310.406 91.1409 312.908 92.8582C315.446 94.5382 317.276 96.5168 318.396 98.7942C319.553 101.034 320.132 103.536 320.132 106.298C320.132 109.584 319.31 112.421 317.668 114.81C316.062 117.2 313.878 119.048 311.116 120.354C308.353 121.661 305.254 122.314 301.82 122.314C299.654 122.314 297.825 122.034 296.332 121.474C294.838 120.952 293.644 120.429 292.748 119.906C291.889 119.384 291.329 119.122 291.068 119.122C290.732 119.122 290.116 119.365 289.22 119.85C288.361 120.336 287.465 120.821 286.532 121.306C285.598 121.792 284.908 122.034 284.46 122.034C284.124 122.034 283.825 121.904 283.564 121.642C283.302 121.381 283.116 120.914 283.004 120.242L280.932 107.362C280.857 106.578 280.857 106 280.932 105.626C281.006 105.253 281.23 104.992 281.604 104.842C281.865 104.73 282.145 104.768 282.444 104.954C282.742 105.104 283.022 105.384 283.284 105.794C286.345 110.872 289.257 114.493 292.02 116.658C294.782 118.786 297.601 119.85 300.476 119.85Z" fill="white"/>
<path d="M116.298 120.445C118.786 119.983 124.78 119.353 127.389 119.557C126.947 120.807 124.714 125.703 124.714 125.703C123.609 125.627 122.67 125.582 121.55 125.645C117.808 125.913 114.365 126.443 110.725 127.546C99.2792 131.017 88.0101 138.297 80.0609 147.239C77.6804 149.918 74.9216 153.806 73.4 157C69.4882 156.932 65.6746 156.466 61.9967 155.638C64.0287 152.729 66.4637 149.843 68.8831 147.242C81.4228 133.766 98.1118 123.828 116.298 120.445Z" fill="white"/>
<path d="M63.6224 84.0744C64.313 85.5411 65.0097 87.0084 65.6853 88.4823C66.1243 89.44 67.1213 90.1647 67.9061 90.8703C68.7636 91.6466 69.6139 92.4312 70.4567 93.2231L80.9704 103.218C78.3351 108.887 77.5602 115.301 77.337 121.51C77.9189 120.346 78.9533 118.986 79.699 117.902C83.9585 111.706 89.2628 106.291 94.8323 101.269C95.352 100.801 97.688 98.5945 98.0822 98.5712C98.8552 99.3565 99.2575 112.048 99.2739 114.223C103.662 113.984 107.404 113.905 111.769 114.692C113.039 114.922 114.231 115.096 115.478 115.482L115.553 115.562C115.367 115.688 110.995 116.246 110.354 116.353C108.125 116.729 105.912 117.19 103.719 117.734C86.2843 122.099 73.1589 130.59 61.213 143.902C59.3326 146.005 57.5271 148.175 55.8004 150.407C55.1905 151.197 54.3803 152.236 53.7882 153.118C49.1161 151.277 44.7508 148.826 40.7883 145.867C47.4266 138.174 55.8451 132.221 65.3095 128.523C65.197 127.164 64.8699 125.344 64.6546 123.964L63.6945 117.637C62.4754 109.608 61.2957 101.539 60.5458 93.4531C60.4122 92.0124 60.212 89.835 60.3035 88.4486C60.3896 87.1517 62.5779 84.7614 63.6224 84.0744Z" fill="white"/>
<path fill-rule="evenodd" clip-rule="evenodd" d="M74.3907 0C105.433 0.000310832 130.597 25.1658 130.597 56.2081V100.806C130.597 105.3 130.066 109.67 129.07 113.859C120.65 112.835 111.135 111.226 102.843 109.511C102.544 108.687 102.399 107.82 102.225 106.961C101.571 103.729 100.867 100.5 100.441 97.2291C100.415 97.0278 100.404 96.5362 100.536 96.3411C102.394 94.399 104.839 92.7257 106.76 90.8642C107.511 86.5201 107.824 81.8076 108.544 77.4318C108.792 75.9167 109.621 74.8172 109.775 73.0622C110.037 71.2849 108.418 68.9251 108.683 67.3291C109.317 63.5166 112.855 61.0842 112.824 56.9627C112.803 54.0946 111.441 52.7267 109.682 50.6192C110.064 49.6526 110.698 48.2647 110.947 47.3262C110.51 46.0464 109.223 43.1689 108.596 41.8738C107.752 41.8608 106.949 41.8993 106.108 41.9352C103.575 42.0312 101.006 42.1112 98.4749 42.2419C99.8546 43.8175 101.252 45.3778 102.668 46.9213C103.039 47.3275 104.846 49.2517 105.055 49.633C105.639 50.6996 106.357 52.4583 106.869 53.6084C107.36 54.7123 108.087 56.3375 108.357 57.4826C106.675 56.6105 104.249 55.1925 102.587 54.498C102.422 54.906 102.258 55.297 102.121 55.7157C102.607 56.7714 106.28 64.999 106.621 65.2295C106.94 65.2229 107.813 64.732 107.582 65.2049C107.813 68.3485 107.812 68.3491 107.812 68.3491V69.6435C107.89 70.9169 108.043 71.6643 107.812 72.8352C107.645 73.6842 107.196 75.2235 107.094 76.0852C106.857 78.1408 106.601 80.195 106.326 82.2462L105.745 86.6418C105.633 87.4873 105.522 88.5647 105.329 89.378C105.017 89.6366 104.809 89.8133 104.464 90.036C103.015 89.6153 101.582 89.1077 100.156 88.6111C99.0638 88.2307 97.9139 87.7175 96.7602 87.6004C93.5119 87.2712 70.0854 87.9176 69.1991 87.3443C68.6979 87.0196 65.1712 80.611 64.4353 79.4931C62.0541 81.466 60.0269 81.0187 57.2314 80.375C54.7522 79.8042 52.713 78.9627 51.0995 76.9318C48.2974 73.668 48.756 67.3186 54.3449 68.0607C54.6569 68.1022 54.9683 68.1522 55.2774 68.211C54.0236 68.9107 52.894 69.8053 52.4262 71.2248C52.1948 71.9275 52.6377 72.3024 53.1241 72.6926C54.1666 73.5289 55.1269 74.4011 56.2237 75.1649C57.7674 76.2399 58.9057 74.8871 60.4169 75.5346C61.5542 76.0777 61.7977 75.8687 62.9844 75.5637C62.3165 74.1968 61.5754 73.4074 60.9798 72.2923C61.0473 71.4595 61.1523 70.5497 61.1807 69.7263C62.0606 69.2057 63.1583 68.6713 63.9706 68.1236C66.3729 66.5031 68.6654 63.9374 69.6776 61.185C70.2711 59.5708 70.6911 57.5264 71.1576 55.8553C71.3629 55.1201 71.6012 54.151 71.7328 53.4044C69.4745 54.1026 68.0648 54.4563 65.6562 54.3891C61.4753 54.2722 56.7438 51.786 53.0597 54.771C51.3566 56.1508 50.3734 57.7281 49.4799 59.7157C53.0113 59.2147 54.0524 59.7784 57.463 60.5807C60.9753 61.4068 64.1599 60.5578 67.354 59.0685C64.3586 63.9292 60.5547 65.2619 55.2682 63.7141C50.7576 62.3935 47.983 62.8552 45.4815 67.1481C43.4587 70.6196 41.3467 74.9543 42.322 79.1649C42.9808 82.0858 45.5725 84.1719 47.753 86.0314C48.0669 84.13 48.3255 82.2165 48.868 80.3689C50.157 82.7119 50.7492 84.8028 49.9999 87.4501C49.6074 88.8364 48.9979 89.721 48.4661 90.9823C49.1529 94.5155 51.3023 98.0549 54.3004 100.106C55.2203 100.735 56.1885 101.139 57.2023 101.586C57.5235 106.169 58.0893 110.798 58.3664 115.395C58.4761 117.214 58.6973 119.215 58.713 121.023C56.598 122.015 54.5391 122.866 52.4247 123.914C46.5917 126.799 40.9955 130.139 35.6871 133.902C34.3619 134.837 32.6618 136.018 31.4111 137.023C23.1593 127.241 18.1827 114.606 18.1827 100.806V56.2081C18.1827 25.1656 43.3483 0 74.3907 0ZM95.2065 80.5468L99.366 81.8827C99.9959 82.0853 101.194 82.4402 101.771 82.7109L103.41 84.102C103.418 82.7792 103.324 81.3677 103.257 80.0391C102.467 79.7464 99.0322 78.4926 98.3828 78.4778C97.3213 79.1619 96.2615 79.852 95.2065 80.5468ZM99.2295 72.8981C97.2946 73.6847 94.9386 74.6362 93.0654 75.5162C92.9692 75.9811 92.8271 76.5874 92.7679 77.0438C94.308 76.6903 95.8118 76.2327 97.3553 75.8935C98.6134 75.6168 99.4552 76.1986 100.611 76.5606L102.67 77.2723C103.221 78.2056 103.756 79.2004 104.366 80.0882C104.58 78.358 104.543 77.9071 104.171 76.2309C103.68 74.0191 103.661 74.3477 101.483 73.6604C100.867 73.4661 99.9588 72.7974 99.2295 72.8981ZM102.114 65.0914C100.057 66.1516 97.2932 67.4194 95.3353 68.5162C95.7547 69.0533 96.0897 69.4605 96.5485 69.9625C97.448 69.9706 98.538 69.9349 99.4135 69.9733L102.94 71.4779C103.198 71.5683 103.285 71.626 103.548 71.5561C103.955 71.1336 106.195 67.1996 106.413 66.5745C105.697 66.1789 102.894 65.0083 102.114 65.0914ZM62.3709 35.8402C58.731 36.4013 53.5324 38.3014 51.4078 41.383C50.4387 42.7891 49.8133 44.1819 49.3848 45.8462C49.2266 46.4611 49.0451 47.3311 48.8542 47.8999C39.3603 50.9503 38.1941 60.9672 40.8067 69.3444L40.9785 70.0178C41.9744 67.427 43.1081 64.9493 44.8695 62.7724C45.0673 62.4823 45.5013 61.9953 45.6088 61.6758C46.6304 58.6381 47.9799 54.6952 50.506 52.5563C52.3022 51.0356 52.638 50.5304 53.9692 48.4673C54.8262 47.1391 56.8258 45.5729 58.078 44.6085C58.4674 44.3275 58.8887 44.061 59.2605 43.7741C60.0873 41.3927 60.4417 39.0877 61.9583 36.992C62.1029 36.7922 62.6934 36.0049 62.6823 35.8264C62.546 35.8242 62.5035 35.8143 62.3709 35.8402ZM86.8185 51.3692C85.5927 51.9484 83.9747 52.9589 82.771 53.6697C80.6958 54.8733 78.6426 56.1148 76.6116 57.3921C77.9925 57.6253 80.5779 58.3894 82.0241 58.7633C84.2917 57.466 86.6576 56.2697 88.9366 58.4488C89.6167 59.3732 89.6509 59.6947 89.6115 60.8599C90.7487 60.697 92.2136 60.5265 93.3139 60.2939C94.6911 58.2603 97.074 54.9633 98.093 52.909C95.4273 52.3015 92.9856 51.872 90.2541 51.5946C89.1532 51.4828 87.9161 51.2809 86.8185 51.3692ZM94.116 41.8585C91.696 38.5708 87.5718 34.9242 83.1667 35.5994C77.4696 36.2003 75.62 41.1939 70.8632 43.725C69.081 44.6732 67.7453 45.0995 65.7344 45.3401C64.5953 45.4764 63.1006 45.5741 62.0642 46.0272C60.3588 46.7726 58.7231 48.2514 57.4308 49.5578C58.6697 49.5681 59.8786 49.576 61.1148 49.6498C63.5263 49.794 66.0525 50.1214 68.4614 50.1866C69.7083 50.1795 70.9551 50.1074 72.1944 49.9704C75.2366 49.6587 77.1517 49.1494 79.3493 46.8845C80.396 45.8054 81.3423 44.4791 82.4597 43.5287C83.5739 42.5809 85.7348 42.4854 87.1483 42.3386C89.4531 42.0991 91.803 42.0383 94.116 41.8585ZM81.4582 29.42C79.6063 28.9919 76.8821 28.6806 74.9766 28.8602C66.4612 29.4968 64.305 35.3977 62.9997 42.7511C65.0203 42.5042 66.3876 42.2628 68.2236 41.3447C69.5631 40.5455 70.8174 39.2136 71.9552 38.13C75.0767 35.157 78.1419 32.1796 81.4582 29.42ZM90.8461 28.0319C87.9911 28.385 84.7161 31.0881 82.6192 33.0028C84.9412 32.8795 86.9168 32.8392 89.1928 33.5273C91.376 34.1871 93.2202 35.356 94.9059 36.8724C95.5234 37.4277 96.2106 38.0919 96.889 38.5518C97.1258 38.7124 97.4092 38.6959 97.6911 38.6929C100.442 38.5985 103.281 38.4499 106.024 38.3953C105.004 36.5041 103.107 33.4706 101.723 31.9261C99.4176 29.3522 94.2636 27.7436 90.8461 28.0319Z" fill="white"/>
</g>
<defs>
<clipPath id="clip0_3410_3106">
<rect width="382" height="157" fill="white"/>
</clipPath>
</defs>
</svg>
