<svg width="382" height="157" viewBox="0 0 382 157" fill="none" xmlns="http://www.w3.org/2000/svg">
<g clip-path="url(#clip0_1374_1572)">
<path d="M174.536 122.138V116.282H175.976C176.552 116.282 177.32 116.154 178.28 115.898C179.24 115.642 180.104 115.098 180.872 114.266C181.64 113.434 182.024 112.186 182.024 110.522V60.4102C182.024 58.8102 181.608 57.6582 180.776 56.9542C180.008 56.1862 179.144 55.6742 178.184 55.4182C177.224 55.1622 176.488 55.0342 175.976 55.0342H174.536V49.1782H200.744V85.7542C200.744 86.5862 200.712 87.4502 200.648 88.3462C200.648 89.1782 200.616 90.0102 200.552 90.8422C200.488 91.6102 200.424 92.3462 200.36 93.0502C200.296 93.6902 200.232 94.2342 200.168 94.6822L212.36 80.8582C212.552 80.6022 212.68 80.3782 212.744 80.1862C212.872 79.9302 212.936 79.7062 212.936 79.5142C212.936 79.3222 212.936 79.1942 212.936 79.1302C212.936 78.2982 212.456 77.5942 211.496 77.0182C210.6 76.3782 209.352 76.0582 207.752 76.0582V70.6822H234.152V76.0582C233.064 76.0582 231.976 76.1862 230.888 76.4422C229.8 76.6982 228.712 77.1462 227.624 77.7862C226.536 78.3622 225.416 79.1302 224.264 80.0902C223.112 81.0502 221.896 82.2342 220.616 83.6422L215.912 89.1142L228.68 108.122C229.896 109.914 230.984 111.418 231.944 112.634C232.968 113.85 233.896 114.778 234.728 115.418C235.624 115.994 236.456 116.282 237.224 116.282H237.608V122.138H236.264C232.232 122.138 228.84 122.01 226.088 121.754C223.336 121.434 221 120.89 219.08 120.122C217.224 119.354 215.592 118.33 214.184 117.05C212.84 115.706 211.528 113.978 210.248 111.866L203.336 100.538L200.744 103.034V110.138C200.744 111.93 201.128 113.274 201.896 114.17C202.664 115.002 203.528 115.578 204.488 115.898C205.448 116.154 206.184 116.282 206.696 116.282H208.52V122.138H174.536ZM238.648 122.138V116.282H239.128C240.6 116.282 241.816 116.122 242.776 115.802C243.8 115.482 244.568 114.842 245.08 113.882C245.656 112.858 245.944 111.354 245.944 109.37V83.0662C245.944 81.1462 245.72 79.7382 245.272 78.8422C244.888 77.8822 244.248 77.2742 243.352 77.0182C242.456 76.6982 241.304 76.5382 239.896 76.5382H239.512V70.6822H261.88L263.896 79.6102H264.376C265.464 77.1142 266.712 75.1302 268.12 73.6582C269.528 72.1222 271.16 71.0342 273.016 70.3942C274.872 69.7542 277.048 69.4342 279.544 69.4342C283.32 69.4342 286.008 70.3622 287.608 72.2182C289.272 74.0102 290.104 76.2502 290.104 78.9382C290.104 82.5222 288.792 85.0822 286.167 86.6182C283.544 88.1542 280.088 88.9222 275.8 88.9222C275.8 87.1302 275.704 85.6262 275.512 84.4102C275.32 83.1942 274.936 82.2662 274.36 81.6262C273.784 80.9222 272.888 80.5702 271.672 80.5702C270.52 80.5702 269.496 80.9862 268.6 81.8182C267.768 82.6502 267.064 83.8022 266.488 85.2742C265.912 86.6822 265.464 88.2822 265.144 90.0742C264.824 91.8022 264.664 93.5942 264.664 95.4502V109.85C264.664 111.706 264.888 113.114 265.336 114.074C265.848 114.97 266.552 115.578 267.448 115.898C268.344 116.154 269.368 116.282 270.52 116.282H273.88V122.138H238.648ZM314.828 123.098C309.452 123.098 305.228 122.586 302.156 121.562C299.148 120.538 297.004 119.162 295.724 117.434C294.508 115.642 293.9 113.722 293.9 111.674C293.9 109.818 294.348 108.346 295.244 107.258C296.14 106.106 297.356 105.306 298.892 104.858C300.428 104.346 302.124 104.09 303.98 104.09C303.98 107.034 304.46 109.402 305.42 111.194C306.38 112.986 307.692 114.298 309.356 115.13C311.02 115.898 312.94 116.282 315.116 116.282C318.188 116.282 320.332 115.738 321.548 114.65C322.828 113.562 323.468 112.314 323.468 110.906C323.468 109.69 323.052 108.666 322.22 107.834C321.388 106.938 320.108 106.138 318.38 105.434C316.716 104.666 314.572 103.93 311.948 103.226C308.044 102.074 304.78 100.794 302.156 99.3862C299.596 97.9142 297.676 96.1222 296.396 94.0102C295.116 91.8342 294.476 89.1142 294.476 85.8502C294.476 80.1542 296.524 75.9942 300.62 73.3702C304.78 70.6822 310.252 69.3382 317.036 69.3382C321.452 69.3382 324.972 69.8182 327.596 70.7782C330.284 71.6742 332.204 72.8262 333.356 74.2342C334.572 75.6422 335.18 77.1142 335.18 78.6502C335.18 80.9542 334.348 82.6822 332.684 83.8342C331.02 84.9862 328.364 85.5622 324.716 85.5622C324.716 82.4262 323.82 80.0582 322.028 78.4582C320.236 76.7942 318.028 75.9622 315.404 75.9622C314.124 75.9622 312.94 76.1542 311.852 76.5382C310.828 76.8582 310.028 77.3702 309.452 78.0742C308.876 78.7142 308.588 79.5782 308.588 80.6662C308.588 81.8182 308.908 82.8422 309.548 83.7382C310.252 84.5702 311.436 85.3702 313.1 86.1382C314.764 86.8422 317.068 87.6422 320.012 88.5382C323.468 89.5622 326.508 90.7462 329.132 92.0902C331.756 93.4342 333.772 95.1622 335.18 97.2742C336.652 99.3222 337.388 102.042 337.388 105.434C337.388 110.682 335.5 114.938 331.724 118.202C327.948 121.466 322.316 123.098 314.828 123.098ZM355.336 123.002C352.776 123.002 350.6 122.394 348.808 121.178C347.016 119.898 346.12 117.658 346.12 114.458C346.12 111.194 347.016 108.954 348.808 107.738C350.6 106.522 352.776 105.914 355.336 105.914C357.768 105.914 359.912 106.522 361.768 107.738C363.624 108.954 364.552 111.194 364.552 114.458C364.552 117.658 363.624 119.898 361.768 121.178C359.912 122.394 357.768 123.002 355.336 123.002Z" fill="#011936"/>
<path d="M76.2016 51.2966C76.3678 51.2636 76.453 51.2726 76.6225 51.2694L76.6922 51.3866C76.5907 51.8131 76.0028 52.5895 75.7464 53.0759C75.4245 53.6975 75.1379 54.3367 74.8874 54.9904C73.3585 58.9886 73.7807 63.4406 70.0937 66.3287C68.982 67.1995 67.6285 67.1347 67.471 68.7925C67.2896 70.7022 69.7019 71.7098 69.8995 73.1829C69.542 74.2904 68.0102 72.931 67.0747 72.976C65.3151 73.0204 64.0274 72.5991 63.076 71.0379C62.5182 70.1224 61.6665 68.0833 60.3196 69.2609C59.8867 69.6388 59.6352 70.1831 59.6278 70.7577C59.6136 72.4207 60.9811 74.4313 62.1436 75.5694C63.7503 77.1423 66.3912 78.3816 68.6683 78.3624C69.8867 78.3521 70.5296 77.8647 71.3094 77.0633C72.712 79.2309 73.2542 80.809 75.4374 82.6554C76.5347 83.5877 77.8016 84.2992 79.1684 84.7515C84.3298 86.4289 93.507 85.2687 99.0437 84.8582C100.985 84.7179 102.928 84.5991 104.872 84.5007C105.993 84.4536 108.339 84.6998 108.995 83.6637C110.321 81.5208 108.711 78.5464 106.581 77.5899C105.5 77.0491 103.486 77.0471 104.591 75.3581C105.497 73.9727 107.78 74.5201 108.226 73.9329C108.26 73.0205 107.145 72.3525 106.363 72.1701C104.022 71.6245 102.324 73.5031 100.175 73.7185C99.9775 73.7383 99.8407 73.5326 99.746 73.4048C99.468 72.0898 100.904 72.0641 101.514 71.6652C103.835 70.1485 104.833 68.2295 107.847 69.4542C110.426 68.1284 109.299 71.3256 108.758 72.4714C108.977 72.7935 109.218 73.1216 109.393 73.4689C109.959 74.5853 109.534 75.5266 109.202 76.6102C108.713 78.2074 110.254 79.0541 110.909 80.3529C111.517 81.5597 111.596 83.1792 111.181 84.4622C110.286 87.2362 107.364 88.2337 104.902 89.1856C103.108 89.8793 101.213 90.4956 99.505 91.3803C98.4498 91.9268 97.5719 92.6705 97.2268 93.853C97.0796 94.3574 97.0306 94.8918 97.0461 95.416C97.0874 96.7853 98.0264 103.998 98.6228 104.948C98.9215 105.425 99.5747 105.691 100.088 105.847C101.177 106.178 102.381 106.261 103.509 106.414C106.037 106.755 108.576 106.989 111.11 107.28C112.425 107.431 113.755 107.548 115.052 107.819C109.768 108.229 103.011 110.41 98.0574 112.427C93.952 114.132 89.9301 116.03 86.0046 118.114C85.3867 118.439 83.2118 119.704 82.6575 119.651L82.5981 119.508C82.7642 119.016 83.1498 118.658 83.4966 118.29C85.5846 116.078 87.7216 113.372 89.0066 110.628C90.2193 108.038 91.7203 103.959 90.3587 101.188C89.6005 99.6444 87.0211 98.1873 85.5519 97.3542C78.1872 93.2841 73.3757 89.8328 70.4843 81.546C67.5799 83.7495 64.7391 82.7267 61.9103 81.0161C61.514 82.6707 61.3051 85.4004 61.1699 87.1329C61.1526 87.6984 61.1315 88.2656 61.1006 88.8293C60.8774 92.9114 61.1483 97.0073 61.373 101.083C61.6274 105.574 61.9492 110.059 62.3382 114.54C62.7187 118.631 63.0121 122.769 63.2999 126.868C63.362 127.753 63.1734 128.018 62.3145 128.163C60.6172 128.452 58.9024 128.719 57.22 129.09C50.5242 130.668 42.0167 133.008 37.4958 138.454C34.7368 137.913 33.5136 137.63 32.7085 136.869C36.4693 129.724 46.6388 125.432 52.576 119.949C55.0056 117.705 56.7345 115.446 56.8523 112.038C56.8961 110.772 56.4617 100.533 56.0119 99.6797C55.8677 99.406 52.2555 98.5118 51.6072 98.2338C50.2405 97.6477 48.8898 96.7096 47.8787 95.6182C46.116 93.6792 45.2834 91.0705 45.5973 88.4687C45.6361 88.1623 46.1188 86.2026 45.9245 86.0502C45.0714 85.3823 44.13 84.9408 43.2571 84.2544C41.2198 82.6528 40.2006 80.4095 39.929 77.8601C39.5331 73.8296 40.7381 69.8051 43.2837 66.6553C45.9251 63.4228 49.7431 61.716 53.8394 61.3025C53.2205 64.0122 50.9944 67.8462 49.1814 69.8994C47.898 71.3527 46.6723 72.5005 45.8035 74.2765C44.5189 76.9021 45.2375 80.0503 48.0146 81.3244C49.7397 82.116 51.4453 81.5508 53.1331 80.9121C53.025 82.9856 51.9806 84.2946 51.145 86.1217C49.6861 89.313 50.0856 92.7952 53.6155 94.2962C52.629 92.3279 52.683 90.0222 53.8883 88.2122C55.1266 86.3532 56.6327 84.946 56.5337 82.4693C56.3815 78.6654 53.6246 78.0701 54.0964 73.5904C53.2111 74.2598 52.4169 75.0421 51.7342 75.9173C51.5331 76.1714 51.4458 76.3801 51.1847 76.4494C51.1002 76.2927 51.087 76.2952 51.0963 76.1062C51.2186 73.6542 52.0759 70.8277 53.2357 68.703C55.1881 65.1263 58.1964 62.019 62.3582 61.3464C64.5826 61.0196 66.7215 61.1288 68.4033 59.3674C68.9032 58.8439 70.0859 57.0192 69.0939 56.5214C67.7831 55.8639 65.0212 56.6579 63.6652 56.9497C65.5718 53.8338 69.0257 52.0467 72.585 51.6492C73.8071 51.5128 74.9804 51.4931 76.2016 51.2966Z" fill="#011936"/>
<path d="M118.323 108.963C122.178 108.715 126.038 109.404 129.338 110.93C128.764 111.344 127.558 111.866 126.839 112.292C124.739 113.535 122.912 114.891 121.158 116.41C110.213 125.894 104.317 135.507 87.0056 139.155C87.4652 138.692 88.214 137.65 88.6572 137.114C89.7528 135.792 90.907 134.498 92.1171 133.234C98.5187 126.671 106.006 120.756 114.397 115.633C116.466 114.373 118.821 112.979 121.061 111.901C116.274 111.729 112.103 113.412 108.032 115.1C96.287 120.552 86.1096 127.732 78.1037 136.213C77.0227 137.359 74.754 139.752 73.9625 140.936C69.0801 141.037 66.4656 140.978 61.6503 140.526C63.5576 137.899 67.9897 133.667 70.5744 131.435C74.2297 128.271 78.1984 125.321 82.4449 122.612C91.5129 116.807 106.112 109.576 118.323 108.963Z" fill="#011936"/>
<path d="M85.7352 30.2535C86.9728 30.374 88.3921 30.7269 89.665 30.8156C92.1162 30.9867 94.3797 30.6516 96.756 31.5095C100.107 32.7193 102.002 35.8601 101.714 39.3778C101.625 40.4678 101.307 41.2773 100.943 42.2904C102.343 44.621 104.131 47.0868 105.01 49.6764C105.31 50.5589 105.119 51.4862 104.894 52.3635C105.438 53.1836 106.243 54.079 106.89 54.8406C108.013 56.1676 109.152 57.4806 110.308 58.7791C110.997 59.5446 112.177 60.4516 112.348 61.456C112.835 64.3153 109.78 64.8816 108.398 66.6877C107.854 67.3995 108.495 67.9717 108.178 68.4007C106.761 68.6725 106.5 67.2909 105.943 66.6583C105.137 65.7432 102.603 67.0836 101.803 65.6399C101.66 65.3831 101.604 65.4693 101.654 65.1582C101.851 65.1585 102.5 65.1745 102.601 65.0739C104.225 63.4528 105.758 62.1036 108.206 62.0608C108.829 62.0498 109.984 62.0299 110.25 61.3873C110.255 60.6444 109.644 60.1775 109.165 59.6582C107.011 57.3182 104.928 54.8528 102.98 52.3396C102.843 52.0968 102.888 51.4529 102.926 51.1794C103.119 49.778 102.619 49.0068 101.869 47.8833C100.653 46.1443 98.912 43.5017 97.3103 42.228C95.4831 40.7747 92.4209 39.4649 90.0351 39.7931C86.9617 40.1305 85.6956 42.5152 83.9674 44.7116C80.2166 49.4778 73.9805 49.4581 69.4731 45.8021C70.5157 45.7213 71.6367 45.7815 72.7263 45.6917C76.5459 45.3772 79.8509 44.0249 82.4423 41.139C83.6102 39.838 84.6766 38.3878 86.1311 37.3903C87.7354 36.2982 89.7089 35.8924 91.6136 36.2631C94.4546 36.7933 96.126 38.2343 97.7165 40.5345C98.356 36.9393 96.2827 34.3358 92.8977 33.345C91.543 32.9483 90.0712 32.7423 88.7561 32.2387C87.6588 31.8183 86.6165 31.0078 85.7352 30.2535Z" fill="#011936"/>
<path d="M74.0439 19.5032C74.4206 20.1209 73.7348 22.9264 73.5655 23.6173C72.1354 29.4574 67.8943 33.8628 63.029 37.1101C61.9362 37.8395 60.8255 38.8056 59.6921 39.4588L59.6562 39.4287C59.5716 39.0823 59.8928 37.9587 59.9598 37.5146C61.2632 28.8884 65.9747 22.9982 74.0439 19.5032Z" fill="#011936"/>
<path d="M92.383 17.6463C92.9269 17.5862 93.4734 17.5962 94.0225 17.5919C93.8478 18.1961 93.5845 18.7903 93.3073 19.353C92.3735 21.2149 91.1376 22.9092 89.6495 24.3669C85.1689 28.7514 80.8561 29.1137 75.3237 30.9737C74.8246 31.1843 74.2063 31.3761 73.6848 31.5516C77.8627 23.6601 83.1747 18.767 92.383 17.6463Z" fill="#011936"/>
<path d="M63.0469 46.7355C63.9294 46.6021 66.1584 46.6705 67.1061 46.7216L67.0757 46.785C64.9247 51.1679 59.8722 55.2478 55.2006 56.553C53.2074 57.11 50.6497 57.5858 48.793 58.2498L48.6628 58.2971C47.6376 58.6382 46.7348 59.1839 45.6381 59.4716C46.256 58.1091 47.5274 56.2394 48.4693 55.0495C52.4585 50.0101 56.7139 47.4985 63.0469 46.7355Z" fill="#011936"/>
<path d="M76.0597 34.3465C77.6097 34.1472 80.715 34.3788 82.1678 34.8086C81.6557 35.4614 81.1135 36.1504 80.5523 36.7574C77.5168 40.0553 73.4189 42.1813 68.9746 42.7639C67.2105 43.0109 65.2411 43.0583 63.444 43.1347C61.791 43.2048 59.6614 43.7094 58.0315 44.0954C61.2405 40.4346 66.4934 36.629 71.1498 35.2667C72.8735 34.7623 74.2785 34.5132 76.0597 34.3465Z" fill="#011936"/>
<path d="M55.1294 29.5697C55.3456 29.8275 55.5819 30.6938 55.6549 31.0402C56.7101 36.0463 55.6479 41.0287 53.0799 45.4298C51.6129 47.9438 49.7043 50.2039 47.8648 52.4831C47.7093 52.6268 47.7524 52.59 47.5643 52.6922L47.4781 52.5784C47.4909 51.8422 47.382 50.7708 47.3231 49.9974C47.162 47.8797 47.1035 45.9831 47.2981 43.8594C47.7634 38.7824 51.1751 32.8073 55.1294 29.5697Z" fill="#011936"/>
<path d="M41.1683 44.4343C42.0074 45.2885 42.9546 48.5535 43.1992 49.7765C44.2015 54.7874 43.0858 59.5939 40.9857 64.1666C40.5866 65.0359 40.0279 66.5304 39.5311 67.2975C38.8353 64.7881 37.7843 62.3046 37.3768 59.6889C36.5785 54.303 37.9413 48.8198 41.1683 44.4343Z" fill="#011936"/>
<path d="M94.0458 49.2356C95.2206 49.1119 97.7268 49.0745 98.7889 49.6444C100.465 50.5436 98.6675 52.2779 98.5961 53.4531C98.5686 53.9003 98.8431 54.3696 98.9627 54.7986C99.0918 55.2621 99.0402 55.6962 98.7837 56.1084C98.2914 56.9005 97.1786 57.4074 96.2878 57.575C95.4082 57.7405 93.9347 57.6989 93.1946 57.1673C92.7797 56.8687 92.4148 56.4539 91.9785 56.1935C91.3269 55.8047 86.7534 57.2505 85.7309 57.4841C86.5029 56.5531 87.9359 55.412 88.9188 54.6718C90.3113 53.7279 91.0068 53.377 92.5525 52.7359C91.7151 52.7044 90.937 52.6721 90.1108 52.8162C87.7638 53.2258 84.3418 55.2028 82.5154 56.7619C83.0009 55.8184 83.5904 54.9325 84.2738 54.1212C86.8127 51.165 90.1745 49.5143 94.0458 49.2356Z" fill="#011936"/>
<path d="M33.0077 61.2673C33.4763 61.559 33.9237 62.0493 34.2686 62.4828C36.4824 65.282 37.6597 68.761 37.6004 72.3294C37.5892 73.5285 37.3452 75.6582 37.2108 76.888C36.2221 75.9304 35.6233 75.2669 34.8872 74.0689C32.7313 70.5608 31.9951 65.2538 33.0077 61.2673Z" fill="#011936"/>
</g>
<defs>
<clipPath id="clip0_1374_1572">
<rect width="382" height="157" fill="white"/>
</clipPath>
</defs>
</svg>
