<svg width="382" height="157" viewBox="0 0 382 157" fill="none" xmlns="http://www.w3.org/2000/svg">
<g clip-path="url(#clip0_274_7126)">
<path d="M170.426 121.138V115.282H171.866C172.442 115.282 173.21 115.154 174.17 114.898C175.13 114.642 175.994 114.098 176.762 113.266C177.53 112.434 177.914 111.186 177.914 109.522V59.4102C177.914 57.8102 177.498 56.6582 176.666 55.9542C175.898 55.1862 175.034 54.6742 174.074 54.4182C173.114 54.1622 172.378 54.0342 171.866 54.0342H170.426V48.1782H196.634V84.7542C196.634 85.5862 196.602 86.4502 196.538 87.3462C196.538 88.1782 196.506 89.0102 196.442 89.8422C196.378 90.6102 196.314 91.3462 196.25 92.0502C196.186 92.6902 196.122 93.2342 196.058 93.6822L208.25 79.8582C208.442 79.6022 208.57 79.3782 208.634 79.1862C208.762 78.9302 208.826 78.7062 208.826 78.5142C208.826 78.3222 208.826 78.1942 208.826 78.1302C208.826 77.2982 208.346 76.5942 207.386 76.0182C206.49 75.3782 205.242 75.0582 203.642 75.0582V69.6822H230.042V75.0582C228.954 75.0582 227.866 75.1862 226.778 75.4422C225.69 75.6982 224.602 76.1462 223.514 76.7862C222.426 77.3622 221.306 78.1302 220.154 79.0902C219.002 80.0502 217.786 81.2342 216.506 82.6422L211.802 88.1142L224.57 107.122C225.786 108.914 226.874 110.418 227.834 111.634C228.858 112.85 229.786 113.778 230.618 114.418C231.514 114.994 232.346 115.282 233.114 115.282H233.498V121.138H232.154C228.122 121.138 224.73 121.01 221.978 120.754C219.226 120.434 216.89 119.89 214.97 119.122C213.114 118.354 211.482 117.33 210.074 116.05C208.73 114.706 207.418 112.978 206.138 110.866L199.226 99.5382L196.634 102.034V109.138C196.634 110.93 197.018 112.274 197.786 113.17C198.554 114.002 199.418 114.578 200.378 114.898C201.338 115.154 202.074 115.282 202.586 115.282H204.41V121.138H170.426ZM234.537 121.138V115.282H235.017C236.489 115.282 237.705 115.122 238.665 114.802C239.689 114.482 240.457 113.842 240.969 112.882C241.545 111.858 241.833 110.354 241.833 108.37V82.0662C241.833 80.1462 241.609 78.7382 241.161 77.8422C240.777 76.8822 240.137 76.2742 239.241 76.0182C238.345 75.6982 237.193 75.5382 235.785 75.5382H235.401V69.6822H257.769L259.785 78.6102H260.265C261.353 76.1142 262.601 74.1302 264.009 72.6582C265.417 71.1222 267.049 70.0342 268.905 69.3942C270.761 68.7542 272.937 68.4342 275.433 68.4342C279.209 68.4342 281.897 69.3622 283.497 71.2182C285.161 73.0102 285.993 75.2502 285.993 77.9382C285.993 81.5222 284.681 84.0822 282.057 85.6182C279.433 87.1542 275.977 87.9222 271.689 87.9222C271.689 86.1302 271.593 84.6262 271.401 83.4102C271.209 82.1942 270.825 81.2662 270.249 80.6262C269.673 79.9222 268.777 79.5702 267.561 79.5702C266.409 79.5702 265.385 79.9862 264.489 80.8182C263.657 81.6502 262.953 82.8022 262.377 84.2742C261.801 85.6822 261.353 87.2822 261.033 89.0742C260.713 90.8022 260.553 92.5942 260.553 94.4502V108.85C260.553 110.706 260.777 112.114 261.225 113.074C261.737 113.97 262.441 114.578 263.337 114.898C264.233 115.154 265.257 115.282 266.409 115.282H269.769V121.138H234.537ZM310.718 122.098C305.342 122.098 301.118 121.586 298.046 120.562C295.038 119.538 292.894 118.162 291.614 116.434C290.398 114.642 289.79 112.722 289.79 110.674C289.79 108.818 290.238 107.346 291.134 106.258C292.03 105.106 293.246 104.306 294.782 103.858C296.318 103.346 298.014 103.09 299.87 103.09C299.87 106.034 300.35 108.402 301.31 110.194C302.27 111.986 303.582 113.298 305.246 114.13C306.91 114.898 308.83 115.282 311.006 115.282C314.078 115.282 316.222 114.738 317.438 113.65C318.718 112.562 319.358 111.314 319.358 109.906C319.358 108.69 318.942 107.666 318.11 106.834C317.278 105.938 315.998 105.138 314.27 104.434C312.606 103.666 310.462 102.93 307.838 102.226C303.934 101.074 300.67 99.7942 298.046 98.3862C295.486 96.9142 293.566 95.1222 292.286 93.0102C291.006 90.8342 290.366 88.1142 290.366 84.8502C290.366 79.1542 292.414 74.9942 296.51 72.3702C300.67 69.6822 306.142 68.3382 312.926 68.3382C317.342 68.3382 320.862 68.8182 323.486 69.7782C326.174 70.6742 328.094 71.8262 329.246 73.2342C330.462 74.6422 331.07 76.1142 331.07 77.6502C331.07 79.9542 330.238 81.6822 328.574 82.8342C326.91 83.9862 324.254 84.5622 320.606 84.5622C320.606 81.4262 319.71 79.0582 317.918 77.4582C316.126 75.7942 313.918 74.9622 311.294 74.9622C310.014 74.9622 308.83 75.1542 307.742 75.5382C306.718 75.8582 305.918 76.3702 305.342 77.0742C304.766 77.7142 304.478 78.5782 304.478 79.6662C304.478 80.8182 304.798 81.8422 305.438 82.7382C306.142 83.5702 307.326 84.3702 308.99 85.1382C310.654 85.8422 312.958 86.6422 315.902 87.5382C319.358 88.5622 322.398 89.7462 325.022 91.0902C327.646 92.4342 329.662 94.1622 331.07 96.2742C332.542 98.3222 333.278 101.042 333.278 104.434C333.278 109.682 331.39 113.938 327.614 117.202C323.838 120.466 318.206 122.098 310.718 122.098ZM351.225 122.002C348.665 122.002 346.489 121.394 344.697 120.178C342.905 118.898 342.009 116.658 342.009 113.458C342.009 110.194 342.905 107.954 344.697 106.738C346.489 105.522 348.665 104.914 351.225 104.914C353.657 104.914 355.801 105.522 357.657 106.738C359.513 107.954 360.441 110.194 360.441 113.458C360.441 116.658 359.513 118.898 357.657 120.178C355.801 121.394 353.657 122.002 351.225 122.002Z" fill="white"/>
<path d="M72.0916 51.2966C72.2577 51.2636 72.3429 51.2726 72.5125 51.2694L72.5822 51.3866C72.4806 51.8131 71.8928 52.5895 71.6363 53.0759C71.3144 53.6975 71.0278 54.3367 70.7774 54.9904C69.2485 58.9886 69.6706 63.4406 65.9836 66.3287C64.8719 67.1995 63.5184 67.1347 63.3609 68.7925C63.1795 70.7022 65.5919 71.7098 65.7895 73.1829C65.432 74.2904 63.9001 72.931 62.9647 72.976C61.2051 73.0204 59.9173 72.5991 58.966 71.0379C58.4082 70.1224 57.5564 68.0833 56.2096 69.2609C55.7767 69.6388 55.5251 70.1831 55.5177 70.7577C55.5035 72.4207 56.871 74.4313 58.0336 75.5694C59.6403 77.1423 62.2811 78.3816 64.5583 78.3624C65.7766 78.3521 66.4196 77.8647 67.1993 77.0633C68.602 79.2309 69.1442 80.809 71.3273 82.6554C72.4247 83.5877 73.6916 84.2992 75.0583 84.7515C80.2197 86.4289 89.397 85.2687 94.9336 84.8582C96.8753 84.7179 98.8178 84.5991 100.762 84.5007C101.883 84.4536 104.229 84.6998 104.885 83.6637C106.211 81.5208 104.601 78.5464 102.47 77.5899C101.39 77.0491 99.3755 77.0471 100.481 75.3581C101.387 73.9727 103.67 74.5201 104.116 73.9329C104.15 73.0205 103.035 72.3525 102.253 72.1701C99.9117 71.6245 98.2136 73.5031 96.0654 73.7185C95.8675 73.7383 95.7306 73.5326 95.6359 73.4048C95.3579 72.0898 96.7935 72.0641 97.4037 71.6652C99.7249 70.1485 100.723 68.2295 103.737 69.4542C106.316 68.1284 105.189 71.3256 104.648 72.4714C104.867 72.7935 105.108 73.1216 105.283 73.4689C105.849 74.5853 105.424 75.5266 105.092 76.6102C104.603 78.2074 106.144 79.0541 106.799 80.3529C107.407 81.5597 107.486 83.1792 107.071 84.4622C106.176 87.2362 103.254 88.2337 100.792 89.1856C98.9977 89.8793 97.1034 90.4956 95.395 91.3803C94.3398 91.9268 93.4619 92.6705 93.1168 93.853C92.9696 94.3574 92.9205 94.8918 92.936 95.416C92.9773 96.7853 93.9163 103.998 94.5128 104.948C94.8114 105.425 95.4647 105.691 95.9776 105.847C97.0672 106.178 98.2713 106.261 99.3988 106.414C101.927 106.755 104.466 106.989 107 107.28C108.315 107.431 109.645 107.548 110.942 107.819C105.658 108.229 98.9013 110.41 93.9473 112.427C89.8419 114.132 85.8201 116.03 81.8946 118.114C81.2766 118.439 79.1017 119.704 78.5474 119.651L78.4881 119.508C78.6542 119.016 79.0397 118.658 79.3866 118.29C81.4746 116.078 83.6116 113.372 84.8966 110.628C86.1092 108.038 87.6102 103.959 86.2487 101.188C85.4904 99.6444 82.911 98.1873 81.4419 97.3542C74.0772 93.2841 69.2656 89.8328 66.3742 81.546C63.4699 83.7495 60.6291 82.7267 57.8003 81.0161C57.4039 82.6707 57.1951 85.4004 57.0598 87.1329C57.0425 87.6984 57.0215 88.2656 56.9906 88.8293C56.7673 92.9114 57.0382 97.0073 57.263 101.083C57.5174 105.574 57.8392 110.059 58.2281 114.54C58.6087 118.631 58.9021 122.769 59.1899 126.868C59.252 127.753 59.0634 128.018 58.2044 128.163C56.5071 128.452 54.7923 128.719 53.1099 129.09C46.4142 130.668 37.9066 133.008 33.3858 138.454C30.6267 137.913 29.4035 137.63 28.5984 136.869C32.3593 129.724 42.5287 125.432 48.4659 119.949C50.8956 117.705 52.6245 115.446 52.7422 112.038C52.786 110.772 52.3517 100.533 51.9019 99.6797C51.7576 99.406 48.1454 98.5118 47.4972 98.2338C46.1304 97.6477 44.7798 96.7096 43.7686 95.6182C42.006 93.6792 41.1734 91.0705 41.4872 88.4687C41.5261 88.1623 42.0087 86.2026 41.8145 86.0502C40.9614 85.3823 40.02 84.9408 39.147 84.2544C37.1097 82.6528 36.0905 80.4095 35.819 77.8601C35.4231 73.8296 36.628 69.8051 39.1737 66.6553C41.8151 63.4228 45.6331 61.716 49.7294 61.3025C49.1105 64.0122 46.8844 67.8462 45.0713 69.8994C43.788 71.3527 42.5623 72.5005 41.6935 74.2765C40.4088 76.9021 41.1275 80.0503 43.9045 81.3244C45.6296 82.116 47.3353 81.5508 49.023 80.9121C48.9149 82.9856 47.8705 84.2946 47.035 86.1217C45.5761 89.313 45.9755 92.7952 49.5055 94.2962C48.519 92.3279 48.5729 90.0222 49.7783 88.2122C51.0165 86.3532 52.5227 84.946 52.4236 82.4693C52.2715 78.6654 49.5146 78.0701 49.9864 73.5904C49.101 74.2598 48.3069 75.0421 47.6241 75.9173C47.4231 76.1714 47.3357 76.3801 47.0747 76.4494C46.9902 76.2927 46.9769 76.2952 46.9863 76.1062C47.1086 73.6542 47.9658 70.8277 49.1256 68.703C51.0781 65.1263 54.0863 62.019 58.2482 61.3464C60.4725 61.0196 62.6115 61.1288 64.2932 59.3674C64.7932 58.8439 65.9759 57.0192 64.9839 56.5214C63.673 55.8639 60.9111 56.6579 59.5552 56.9497C61.4617 53.8338 64.9156 52.0467 68.475 51.6492C69.6971 51.5128 70.8703 51.4931 72.0916 51.2966Z" fill="white"/>
<path d="M114.213 108.963C118.068 108.715 121.927 109.404 125.228 110.93C124.654 111.344 123.448 111.866 122.729 112.292C120.629 113.535 118.802 114.891 117.048 116.41C106.103 125.894 100.207 135.507 82.8955 139.155C83.3551 138.692 84.1038 137.65 84.5471 137.114C85.6427 135.792 86.7969 134.498 88.007 133.234C94.4086 126.671 101.896 120.756 110.287 115.633C112.356 114.373 114.711 112.979 116.951 111.901C112.164 111.729 107.993 113.412 103.922 115.1C92.1769 120.552 81.9995 127.732 73.9936 136.213C72.9126 137.359 70.6439 139.752 69.8524 140.936C64.97 141.037 62.3555 140.978 57.5402 140.526C59.4475 137.899 63.8796 133.667 66.4643 131.435C70.1196 128.271 74.0883 125.321 78.3348 122.612C87.4028 116.807 102.002 109.576 114.213 108.963Z" fill="white"/>
<path d="M81.6252 30.2535C82.8628 30.374 84.2821 30.7269 85.555 30.8156C88.0062 30.9867 90.2697 30.6516 92.646 31.5095C95.9974 32.7193 97.8918 35.8601 97.6043 39.3778C97.5148 40.4678 97.1972 41.2773 96.8331 42.2904C98.2326 44.621 100.021 47.0868 100.9 49.6764C101.2 50.5589 101.009 51.4862 100.784 52.3635C101.328 53.1836 102.133 54.079 102.78 54.8406C103.903 56.1676 105.042 57.4806 106.198 58.7791C106.887 59.5446 108.067 60.4516 108.238 61.456C108.725 64.3153 105.67 64.8816 104.288 66.6877C103.744 67.3995 104.385 67.9717 104.068 68.4007C102.651 68.6725 102.39 67.2909 101.833 66.6583C101.027 65.7432 98.4934 67.0836 97.6929 65.6399C97.5501 65.3831 97.4941 65.4693 97.544 65.1582C97.7411 65.1585 98.3901 65.1745 98.4908 65.0739C100.115 63.4528 101.648 62.1036 104.096 62.0608C104.719 62.0498 105.874 62.0299 106.14 61.3873C106.145 60.6444 105.534 60.1775 105.055 59.6582C102.901 57.3182 100.818 54.8528 98.8703 52.3396C98.7335 52.0968 98.7782 51.4529 98.8161 51.1794C99.0089 49.778 98.5088 49.0068 97.7592 47.8833C96.5431 46.1443 94.802 43.5017 93.2003 42.228C91.3731 40.7747 88.3108 39.4649 85.9251 39.7931C82.8516 40.1305 81.5856 42.5152 79.8574 44.7116C76.1066 49.4778 69.8705 49.4581 65.363 45.8021C66.4057 45.7213 67.5267 45.7815 68.6163 45.6917C72.4359 45.3772 75.7408 44.0249 78.3323 41.139C79.5002 39.838 80.5666 38.3878 82.0211 37.3903C83.6254 36.2982 85.5989 35.8924 87.5035 36.2631C90.3446 36.7933 92.016 38.2343 93.6065 40.5345C94.246 36.9393 92.1726 34.3358 88.7876 33.345C87.433 32.9483 85.9612 32.7423 84.6461 32.2387C83.5488 31.8183 82.5065 31.0078 81.6252 30.2535Z" fill="white"/>
<path d="M69.9339 19.5032C70.3106 20.1209 69.6247 22.9264 69.4555 23.6173C68.0253 29.4574 63.7842 33.8628 58.919 37.1101C57.8261 37.8395 56.7154 38.8056 55.582 39.4588L55.5461 39.4287C55.4615 39.0823 55.7827 37.9587 55.8498 37.5146C57.1532 28.8884 61.8646 22.9982 69.9339 19.5032Z" fill="white"/>
<path d="M88.2729 17.6463C88.8169 17.5862 89.3634 17.5962 89.9125 17.5919C89.7378 18.1961 89.4744 18.7903 89.1973 19.353C88.2635 21.2149 87.0275 22.9092 85.5395 24.3669C81.0588 28.7514 76.7461 29.1137 71.2137 30.9737C70.7145 31.1843 70.0963 31.3761 69.5747 31.5516C73.7527 23.6601 79.0647 18.767 88.2729 17.6463Z" fill="white"/>
<path d="M58.9368 46.7355C59.8193 46.6021 62.0484 46.6705 62.9961 46.7216L62.9657 46.785C60.8146 51.1679 55.7622 55.2478 51.0906 56.553C49.0974 57.11 46.5396 57.5858 44.6829 58.2498L44.5527 58.2971C43.5276 58.6382 42.6247 59.1839 41.5281 59.4716C42.1459 58.1091 43.4173 56.2394 44.3592 55.0495C48.3485 50.0101 52.6039 47.4985 58.9368 46.7355Z" fill="white"/>
<path d="M71.9495 34.3465C73.4996 34.1472 76.6049 34.3788 78.0577 34.8086C77.5456 35.4614 77.0034 36.1504 76.4422 36.7574C73.4067 40.0553 69.3088 42.1813 64.8645 42.7639C63.1004 43.0109 61.131 43.0583 59.3339 43.1347C57.6809 43.2048 55.5513 43.7094 53.9214 44.0954C57.1304 40.4346 62.3833 36.629 67.0397 35.2667C68.7634 34.7623 70.1684 34.5132 71.9495 34.3465Z" fill="white"/>
<path d="M51.0193 29.5697C51.2355 29.8275 51.4719 30.6938 51.5448 31.0402C52.6 36.0463 51.5379 41.0287 48.9698 45.4298C47.5029 47.9438 45.5942 50.2039 43.7548 52.4831C43.5993 52.6268 43.6424 52.59 43.4543 52.6922L43.368 52.5784C43.3808 51.8422 43.272 50.7708 43.2131 49.9974C43.052 47.8797 42.9935 45.9831 43.1881 43.8594C43.6533 38.7824 47.0651 32.8073 51.0193 29.5697Z" fill="white"/>
<path d="M37.0582 44.4343C37.8974 45.2885 38.8446 48.5535 39.0892 49.7765C40.0915 54.7874 38.9757 59.5939 36.8757 64.1666C36.4765 65.0359 35.9179 66.5304 35.4211 67.2975C34.7252 64.7881 33.6743 62.3046 33.2668 59.6889C32.4685 54.303 33.8313 48.8198 37.0582 44.4343Z" fill="white"/>
<path d="M89.9358 49.2356C91.1106 49.1119 93.6168 49.0745 94.6789 49.6444C96.3554 50.5436 94.5575 52.2779 94.4861 53.4531C94.4585 53.9003 94.7331 54.3696 94.8527 54.7986C94.9818 55.2621 94.9302 55.6962 94.6737 56.1084C94.1814 56.9005 93.0686 57.4074 92.1778 57.575C91.2982 57.7405 89.8247 57.6989 89.0846 57.1673C88.6697 56.8687 88.3048 56.4539 87.8684 56.1935C87.2169 55.8047 82.6433 57.2505 81.6209 57.4841C82.3929 56.5531 83.8259 55.412 84.8088 54.6718C86.2013 53.7279 86.8967 53.377 88.4425 52.7359C87.6051 52.7044 86.827 52.6721 86.0008 52.8162C83.6538 53.2258 80.2318 55.2028 78.4054 56.7619C78.8908 55.8184 79.4804 54.9325 80.1638 54.1212C82.7027 51.165 86.0645 49.5143 89.9358 49.2356Z" fill="white"/>
<path d="M28.8976 61.2673C29.3662 61.559 29.8136 62.0493 30.1585 62.4828C32.3723 65.282 33.5496 68.761 33.4903 72.3294C33.4791 73.5285 33.2351 75.6582 33.1007 76.888C32.112 75.9304 31.5132 75.2669 30.7771 74.0689C28.6212 70.5608 27.885 65.2538 28.8976 61.2673Z" fill="white"/>
</g>
<defs>
<clipPath id="clip0_274_7126">
<rect width="382" height="157" fill="white"/>
</clipPath>
</defs>
</svg>
