<svg width="382" height="157" viewBox="0 0 382 157" fill="none" xmlns="http://www.w3.org/2000/svg">
<g clip-path="url(#clip0_274_7126)">
<path d="M171.912 121.138C171.576 121.138 171.296 121.045 171.072 120.858C170.885 120.672 170.792 120.429 170.792 120.13C170.792 119.869 170.867 119.645 171.016 119.458C171.165 119.272 171.427 119.104 171.8 118.954L174.096 118.506C174.581 118.357 174.917 118.096 175.104 117.722C175.328 117.312 175.44 116.752 175.44 116.042V46.3222C175.44 45.8742 175.365 45.5568 175.216 45.3702C175.067 45.1462 174.805 44.9968 174.432 44.9222L171.8 44.8662C171.464 44.7915 171.221 44.6795 171.072 44.5302C170.96 44.3435 170.904 44.1195 170.904 43.8582C170.904 43.5968 170.997 43.3728 171.184 43.1862C171.371 42.9995 171.651 42.8315 172.024 42.6822L188.88 37.8102C189.515 37.6235 189.981 37.4928 190.28 37.4182C190.579 37.3435 190.896 37.3062 191.232 37.3062C191.643 37.3062 191.941 37.4368 192.128 37.6982C192.352 37.9222 192.464 38.2395 192.464 38.6502V116.042C192.464 116.789 192.557 117.368 192.744 117.778C192.968 118.152 193.341 118.413 193.864 118.562L196.16 119.066C196.72 119.328 197 119.682 197 120.13C197 120.802 196.645 121.138 195.936 121.138H171.912ZM189.384 101.314L209.992 81.2662C211.597 79.6982 212.157 78.2048 211.672 76.7862C211.224 75.3675 209.992 74.4155 207.976 73.9302L205.96 73.4262C205.624 73.3142 205.4 73.1835 205.288 73.0342C205.176 72.8475 205.12 72.6608 205.12 72.4742C205.12 72.1008 205.232 71.8395 205.456 71.6902C205.68 71.5035 205.979 71.4102 206.352 71.4102H227.632C228.005 71.4102 228.304 71.5035 228.528 71.6902C228.752 71.8395 228.864 72.0822 228.864 72.4182C228.864 72.7168 228.752 72.9782 228.528 73.2022C228.304 73.4262 227.875 73.5942 227.24 73.7062C224.477 74.3035 221.901 75.2555 219.512 76.5622C217.16 77.8688 214.864 79.6422 212.624 81.8822L190.504 103.274L189.384 101.314ZM207.808 84.7382L226.176 116.098C226.661 116.92 227.147 117.517 227.632 117.89C228.117 118.264 228.715 118.6 229.424 118.898C229.872 119.16 230.152 119.384 230.264 119.57C230.413 119.757 230.488 119.981 230.488 120.242C230.488 120.504 230.395 120.728 230.208 120.914C230.021 121.064 229.741 121.138 229.368 121.138H203.16C202.861 121.138 202.6 121.045 202.376 120.858C202.189 120.672 202.096 120.429 202.096 120.13C202.096 119.906 202.152 119.72 202.264 119.57C202.376 119.384 202.581 119.234 202.88 119.122L204.952 118.674C205.773 118.45 206.259 118.114 206.408 117.666C206.595 117.218 206.445 116.584 205.96 115.762L195.544 96.6662L207.808 84.7382ZM252.162 92.3542C252.162 87.4262 252.871 83.3382 254.29 80.0902C255.708 76.8422 257.538 74.3968 259.778 72.7542C262.055 71.1115 264.444 70.2902 266.946 70.2902C269.932 70.2902 272.21 71.2422 273.778 73.1462C275.383 75.0502 276.186 77.8875 276.186 81.6582C276.186 85.1302 275.402 87.7062 273.834 89.3862C272.266 91.0662 270.268 91.9062 267.842 91.9062C265.564 91.9062 263.884 91.3088 262.802 90.1142C261.719 88.8822 261.14 87.1088 261.066 84.7942L260.954 82.7782C260.954 81.8075 260.748 81.0608 260.338 80.5382C259.964 79.9782 259.33 79.6982 258.434 79.6982C257.5 79.6982 256.623 80.1648 255.802 81.0982C255.018 81.9942 254.383 83.3942 253.898 85.2982C253.412 87.2022 253.17 89.6102 253.17 92.5222L252.162 92.3542ZM252.946 72.1382L253.17 88.7142V115.65C253.17 116.285 253.3 116.826 253.562 117.274C253.86 117.722 254.29 118.002 254.85 118.114L259.946 119.01C260.356 119.085 260.636 119.216 260.786 119.402C260.935 119.589 261.01 119.832 261.01 120.13C261.01 120.429 260.898 120.672 260.674 120.858C260.487 121.045 260.188 121.138 259.778 121.138H232.73C232.319 121.138 232.002 121.045 231.778 120.858C231.591 120.634 231.498 120.373 231.498 120.074C231.498 119.85 231.572 119.645 231.722 119.458C231.908 119.234 232.17 119.066 232.506 118.954L234.746 118.506C235.268 118.357 235.623 118.114 235.81 117.778C236.034 117.405 236.146 116.901 236.146 116.266V79.0822C236.146 78.5968 236.071 78.2422 235.922 78.0182C235.772 77.7568 235.511 77.5888 235.138 77.5142L232.338 77.4582C232.076 77.3835 231.871 77.2715 231.722 77.1222C231.572 76.9355 231.498 76.7302 231.498 76.5062C231.498 76.2448 231.591 76.0208 231.778 75.8342C231.964 75.6102 232.263 75.4235 232.674 75.2742L249.698 71.0742C250.22 70.8875 250.631 70.7755 250.93 70.7382C251.266 70.6635 251.564 70.6262 251.826 70.6262C252.199 70.6262 252.46 70.7568 252.61 71.0182C252.796 71.2422 252.908 71.6155 252.946 72.1382ZM300.476 119.85C302.716 119.85 304.452 119.29 305.684 118.17C306.953 117.05 307.588 115.613 307.588 113.858C307.588 112.589 307.289 111.432 306.692 110.386C306.094 109.341 305.068 108.37 303.612 107.474C302.156 106.578 300.121 105.72 297.508 104.898C292.692 103.33 288.921 101.65 286.196 99.8582C283.47 98.0288 281.548 95.9755 280.428 93.6982C279.345 91.4209 278.804 88.8075 278.804 85.8582C278.804 80.8928 280.484 77.0475 283.844 74.3222C287.204 71.5968 291.814 70.2342 297.676 70.2342C299.99 70.2342 301.876 70.4582 303.332 70.9062C304.825 71.3168 305.982 71.7275 306.804 72.1382C307.662 72.5488 308.26 72.7542 308.596 72.7542C309.044 72.7542 309.753 72.5488 310.724 72.1382C311.694 71.7275 312.665 71.3168 313.636 70.9062C314.644 70.4582 315.353 70.2342 315.764 70.2342C316.062 70.2342 316.342 70.3275 316.604 70.5142C316.865 70.6635 317.052 70.9995 317.164 71.5222L319.628 86.4742C319.814 87.1462 319.852 87.6875 319.74 88.0982C319.665 88.5088 319.478 88.7888 319.18 88.9382C318.844 89.0875 318.526 89.1062 318.228 88.9942C317.929 88.8448 317.649 88.5835 317.388 88.2102C315.073 84.2155 312.908 81.0795 310.892 78.8022C308.913 76.5248 306.916 74.9195 304.9 73.9862C302.921 73.0155 300.793 72.5302 298.516 72.5302C296.089 72.5302 294.241 73.1275 292.972 74.3222C291.74 75.4795 291.124 77.0288 291.124 78.9702C291.124 80.3515 291.441 81.6022 292.076 82.7222C292.748 83.8422 293.942 84.8875 295.66 85.8582C297.377 86.7915 299.822 87.6875 302.996 88.5462C307.102 89.7035 310.406 91.1409 312.908 92.8582C315.446 94.5382 317.276 96.5168 318.396 98.7942C319.553 101.034 320.132 103.536 320.132 106.298C320.132 109.584 319.31 112.421 317.668 114.81C316.062 117.2 313.878 119.048 311.116 120.354C308.353 121.661 305.254 122.314 301.82 122.314C299.654 122.314 297.825 122.034 296.332 121.474C294.838 120.952 293.644 120.429 292.748 119.906C291.889 119.384 291.329 119.122 291.068 119.122C290.732 119.122 290.116 119.365 289.22 119.85C288.361 120.336 287.465 120.821 286.532 121.306C285.598 121.792 284.908 122.034 284.46 122.034C284.124 122.034 283.825 121.904 283.564 121.642C283.302 121.381 283.116 120.914 283.004 120.242L280.932 107.362C280.857 106.578 280.857 106 280.932 105.626C281.006 105.253 281.23 104.992 281.604 104.842C281.865 104.73 282.145 104.768 282.444 104.954C282.742 105.104 283.022 105.384 283.284 105.794C286.345 110.872 289.257 114.493 292.02 116.658C294.782 118.786 297.601 119.85 300.476 119.85Z" fill="white"/>
<path d="M100.764 27.9269C101.605 27.891 102.408 27.8522 103.251 27.8652C103.877 29.1598 105.165 32.0359 105.602 33.3154C105.353 34.2535 104.719 35.6417 104.337 36.6081C106.096 38.7151 107.457 40.082 107.478 42.9494C107.508 47.0696 103.972 49.5008 103.338 53.3121C103.073 54.9077 104.692 57.2669 104.431 59.0436C104.276 60.798 103.447 61.896 103.198 63.4105C102.479 67.785 102.167 72.496 101.416 76.8388C99.4961 78.6998 97.0514 80.3718 95.1937 82.3134C95.0613 82.5082 95.072 82.9998 95.0983 83.2012C95.5241 86.4712 96.2286 89.6993 96.8821 92.9298C97.0564 93.7888 97.201 94.6552 97.5002 95.4797C105.838 97.2043 114.244 98.5803 122.697 99.6038C122.426 101.505 122.07 103.694 121.557 105.54C119.001 105.313 113.468 105.942 110.951 106.409C92.7703 109.791 76.0867 119.726 63.5511 133.198C61.0828 135.851 58.5986 138.801 56.5425 141.77C53.3621 141.065 51.3842 140.567 48.2679 139.361C48.865 138.424 49.7952 137.24 50.4736 136.361C52.1998 134.13 54.0045 131.961 55.8843 129.858C67.8261 116.55 80.9464 108.063 98.3749 103.699C100.567 103.156 102.78 102.695 105.008 102.32C105.648 102.213 110.026 101.654 110.206 101.528L110.131 101.448C108.884 101.062 107.692 100.888 106.422 100.658C102.058 99.8717 98.319 99.9506 93.9319 100.189C93.9154 98.0148 93.5143 85.3278 92.7416 84.5427C92.3495 84.5633 90.01 86.7737 89.4913 87.2406C83.9238 92.2607 78.6226 97.6737 74.3645 103.868C73.619 104.951 72.584 106.311 72.0024 107.475C72.2255 101.268 73 94.8566 75.6346 89.1896L65.125 79.1963C64.2825 78.4047 63.4325 77.6213 62.5753 76.8454C61.7906 76.1398 60.7936 75.4153 60.3547 74.4577C59.6793 72.9841 58.9825 71.5174 58.2921 70.0509C57.2477 70.7378 55.0605 73.1285 54.9751 74.4248C54.8837 75.8107 55.0844 77.9863 55.2179 79.4265C55.9676 87.5102 57.1456 95.5759 58.3643 103.602L59.3252 109.927C59.5404 111.308 59.8668 113.126 59.9794 114.485C50.5013 118.188 42.0737 124.155 35.4322 131.865C34.898 131.551 33.8359 130.671 33.3327 130.253C30.6859 128.074 28.2579 125.64 26.0831 122.989C27.3342 121.983 29.0386 120.799 30.3666 119.862C35.6733 116.099 41.2681 112.761 47.0993 109.877C49.213 108.829 51.2707 107.978 53.3851 106.987C53.3694 105.18 53.1482 103.18 53.0386 101.36C52.7616 96.7653 52.1957 92.139 51.8745 87.5579C50.8611 87.1107 49.8931 86.7071 48.9735 86.0783C45.9762 84.0273 43.8289 80.4885 43.1425 76.9563C43.6742 75.6953 44.2829 74.8117 44.6753 73.4255C45.4244 70.7791 44.8324 68.6892 43.5438 66.347C43.0014 68.1943 42.7427 70.1074 42.4289 72.0084C40.249 70.1493 37.6576 68.0636 36.9991 65.1433C36.024 60.934 38.1361 56.6008 40.1584 53.1304C42.6591 48.8387 45.4328 48.3774 49.9422 49.6977C55.2269 51.245 59.0283 49.9137 62.0227 45.0546C58.8295 46.5435 55.6463 47.3912 52.1349 46.5652C48.7254 45.763 47.6852 45.2 44.1547 45.701C45.0478 43.714 46.031 42.1374 47.7334 40.7579C51.4163 37.7738 56.1462 40.2597 60.3257 40.3765C62.7338 40.4438 64.1431 40.09 66.401 39.392C66.2694 40.1386 66.0303 41.1077 65.825 41.8428C65.3586 43.5135 64.9386 45.5565 64.3452 47.1703C63.3334 49.9218 61.0432 52.4858 58.6416 54.1058C57.8296 54.6535 56.7318 55.1876 55.852 55.7081C55.8236 56.5313 55.7189 57.4402 55.6515 58.2728C56.247 59.3878 56.9879 60.1771 57.6557 61.544C56.4687 61.8489 56.2256 62.0575 55.088 61.5141C53.5773 60.8669 52.4397 62.2198 50.8967 61.1452C49.8001 60.3816 48.8403 59.5092 47.798 58.6731C47.3117 58.2829 46.8686 57.9085 47.1002 57.2058C47.5679 55.7868 48.6973 54.8937 49.9507 54.1942C49.6416 54.1355 49.3309 54.0853 49.0189 54.0438C43.4311 53.3014 42.973 59.6493 45.7748 62.9119C47.3877 64.9421 49.4252 65.782 51.9035 66.3526C54.6984 66.9962 56.7245 67.4437 59.1051 65.4713C59.8401 66.5876 63.3669 72.9965 63.8676 73.3204C64.7537 73.8935 88.1744 73.2466 91.4198 73.5759C92.5731 73.6929 93.7214 74.2064 94.8131 74.5867C96.2384 75.0831 97.6712 75.5898 99.1204 76.0104C99.4649 75.7878 99.6728 75.6114 99.9852 75.3528C100.178 74.5398 100.289 73.4637 100.4 72.6185L100.981 68.2234C101.256 66.1729 101.513 64.12 101.75 62.0651C101.852 61.2035 102.301 59.6643 102.468 58.8157C102.699 57.6452 102.545 56.8988 102.468 55.6258V54.3309C102.468 54.3309 102.468 54.3309 102.238 51.1881C102.468 50.7154 101.596 51.2057 101.277 51.2123C100.936 50.9819 97.2643 42.7581 96.7777 41.7028C96.915 41.284 97.0785 40.8934 97.2438 40.4854C98.9051 41.1798 101.331 42.5973 103.012 43.469C102.742 42.3243 102.016 40.6994 101.525 39.5958C101.013 38.446 100.295 36.688 99.7106 35.6218C99.5019 35.2406 97.6951 33.3162 97.3251 32.9107C95.9096 31.3676 94.5122 29.8084 93.1329 28.2333C95.663 28.1026 98.231 28.0229 100.764 27.9269Z" fill="white"/>
<path d="M116.201 111.608C117.321 111.545 118.259 111.59 119.363 111.665C117.386 116.163 114.735 120.332 111.502 124.031C101.179 135.867 86.7795 141.883 71.2944 142.938C70.3958 143.025 68.9546 143.011 68.0499 142.989C69.5672 139.789 72.3365 135.883 74.7254 133.195C82.6718 124.255 93.9368 116.979 105.378 113.509C109.018 112.406 112.46 111.877 116.201 111.608Z" fill="white"/>
<path d="M77.831 21.593C82.2346 20.918 86.3562 24.5627 88.7754 27.8493C86.4631 28.0291 84.1146 28.0911 81.8104 28.3305C80.3974 28.4774 78.2379 28.572 77.1241 29.5196C76.007 30.4697 75.0608 31.7953 74.0144 32.8742C71.8174 35.1385 69.9028 35.6473 66.8614 35.959C65.6224 36.0959 64.3771 36.1681 63.1306 36.1752C60.7225 36.11 58.1975 35.7823 55.7866 35.6382C54.5507 35.5644 53.342 35.5575 52.1034 35.5472C53.3953 34.2411 55.0303 32.762 56.7353 32.0168C57.7716 31.5638 59.2659 31.466 60.4048 31.3298C62.415 31.0893 63.7488 30.6642 65.5304 29.7164C70.2863 27.1861 72.1351 22.1934 77.831 21.593Z" fill="white"/>
<path d="M85.507 14.0276C88.9233 13.7393 94.0757 15.3473 96.3807 17.9203C97.7641 19.4642 99.6605 22.4972 100.68 24.3879C97.9376 24.4425 95.0999 24.5913 92.3495 24.6857C92.0675 24.6887 91.7848 24.7046 91.548 24.5438C90.8698 24.084 90.1826 23.4211 89.5653 22.8659C87.8802 21.35 86.0372 20.1814 83.8547 19.5218C81.5794 18.8339 79.6049 18.8734 77.2835 18.9967C79.3797 17.0827 82.653 14.3804 85.507 14.0276Z" fill="white"/>
<path d="M69.6433 14.8562C71.5481 14.6767 74.2708 14.9885 76.122 15.4165C72.8068 18.1751 69.79 19.6167 66.8614 23.3607C65.825 24.6857 65.5304 25.8129 62.8929 27.3356C61.0572 28.2537 57.4831 28.9093 57.4831 28.9093C57.4831 28.9093 58.5592 23.7743 59.5404 21.652C61.6071 17.9203 64.2005 15.2631 69.6433 14.8562Z" fill="white"/>
<path d="M81.4816 37.3574C82.579 37.2691 83.8153 37.4716 84.916 37.5834C87.6467 37.8608 90.0873 38.289 92.7523 38.8964C91.7338 40.95 89.3508 44.2453 87.9739 46.2784C86.874 46.5109 85.41 46.6815 84.2732 46.8443C84.3126 45.6795 84.2789 45.3594 83.5991 44.4354C81.3205 42.2559 78.9547 43.4517 76.6876 44.7487C75.2416 44.3749 72.6572 43.6117 71.2769 43.3786C73.3074 42.1016 75.36 40.8611 77.4348 39.6579C78.6382 38.9471 80.256 37.9364 81.4816 37.3574Z" fill="white"/>
<path d="M96.7712 51.0757C97.5496 50.992 100.354 52.1615 101.069 52.557C100.852 53.18 98.6108 57.1159 98.2047 57.5374C97.9409 57.6072 97.8546 57.549 97.5965 57.4585L94.0716 55.9548C93.1962 55.9164 92.1062 55.9524 91.2069 55.9442C90.7482 55.4424 90.4145 55.0361 89.9952 54.4993C91.9525 53.4028 94.7145 52.1355 96.7712 51.0757Z" fill="white"/>
<path d="M93.8875 58.8784C94.6166 58.7776 95.525 59.4462 96.1398 59.6404C98.3182 60.3276 98.3371 59.9988 98.8278 62.2099C99.1994 63.8861 99.2364 64.3361 99.0226 66.0659C98.4127 65.1783 97.8784 64.1842 97.3268 63.251L95.2685 62.5409C94.1127 62.1789 93.2718 61.5967 92.0141 61.8733C90.4712 62.2125 88.9685 62.6697 87.4289 63.023C87.4881 62.5666 87.6295 61.9604 87.7256 61.4955C89.5982 60.6159 91.9533 59.6647 93.8875 58.8784Z" fill="white"/>
<path d="M93.0408 64.4572C93.6886 64.4712 97.1238 65.7247 97.9137 66.0174C97.9803 67.3457 98.0748 68.7568 98.0674 70.0792L96.4275 68.689C95.8513 68.4184 94.6544 68.0634 94.0248 67.8608L89.8662 66.5248C90.9208 65.8303 91.9796 65.141 93.0408 64.4572Z" fill="white"/>
<path d="M53.8256 30.5878C55.0546 29.3587 57.4831 28.9093 57.4831 28.9093C57.4831 28.9093 58.5592 23.7743 59.5404 21.652C59.5404 21.652 59.1569 21.652 57.0421 21.8337C53.4032 22.3946 48.2057 24.2942 46.082 27.3753C45.1132 28.7808 44.4887 30.1723 44.0603 31.8359C43.9021 32.4507 43.7206 33.3209 43.5296 33.8896C34.0389 36.939 32.8733 46.9523 35.485 55.3267L35.6566 55.9998C36.6522 53.4099 37.7853 50.9327 39.5462 48.7565C39.7439 48.4664 42.7298 45.701 44.1547 45.701C43.3531 43.0393 42.6558 40.6816 45.1814 38.5435C46.977 37.0233 49.9913 35.6382 52.1034 35.5472C52.9601 34.2193 52.5965 31.8168 53.8256 30.5878Z" fill="white"/>
</g>
<defs>
<clipPath id="clip0_274_7126">
<rect width="382" height="157" fill="white"/>
</clipPath>
</defs>
</svg>
