<svg width="382" height="157" viewBox="0 0 382 157" fill="none" xmlns="http://www.w3.org/2000/svg">
<g clip-path="url(#clip0_1374_1572)">
<path d="M175.912 122.138C175.576 122.138 175.296 122.045 175.072 121.858C174.885 121.672 174.792 121.429 174.792 121.13C174.792 120.869 174.867 120.645 175.016 120.458C175.165 120.272 175.427 120.104 175.8 119.954L178.096 119.506C178.581 119.357 178.917 119.096 179.104 118.722C179.328 118.312 179.44 117.752 179.44 117.042V47.3222C179.44 46.8742 179.365 46.5568 179.216 46.3702C179.067 46.1462 178.805 45.9968 178.432 45.9222L175.8 45.8662C175.464 45.7915 175.221 45.6795 175.072 45.5302C174.96 45.3435 174.904 45.1195 174.904 44.8582C174.904 44.5968 174.997 44.3728 175.184 44.1862C175.371 43.9995 175.651 43.8315 176.024 43.6822L192.88 38.8102C193.515 38.6235 193.981 38.4928 194.28 38.4182C194.579 38.3435 194.896 38.3062 195.232 38.3062C195.643 38.3062 195.941 38.4368 196.128 38.6982C196.352 38.9222 196.464 39.2395 196.464 39.6502V117.042C196.464 117.789 196.557 118.368 196.744 118.778C196.968 119.152 197.341 119.413 197.864 119.562L200.16 120.066C200.72 120.328 201 120.682 201 121.13C201 121.802 200.645 122.138 199.936 122.138H175.912ZM193.384 102.314L213.992 82.2662C215.597 80.6982 216.157 79.2048 215.672 77.7862C215.224 76.3675 213.992 75.4155 211.976 74.9302L209.96 74.4262C209.624 74.3142 209.4 74.1835 209.288 74.0342C209.176 73.8475 209.12 73.6608 209.12 73.4742C209.12 73.1008 209.232 72.8395 209.456 72.6902C209.68 72.5035 209.979 72.4102 210.352 72.4102H231.632C232.005 72.4102 232.304 72.5035 232.528 72.6902C232.752 72.8395 232.864 73.0822 232.864 73.4182C232.864 73.7168 232.752 73.9782 232.528 74.2022C232.304 74.4262 231.875 74.5942 231.24 74.7062C228.477 75.3035 225.901 76.2555 223.512 77.5622C221.16 78.8688 218.864 80.6422 216.624 82.8822L194.504 104.274L193.384 102.314ZM211.808 85.7382L230.176 117.098C230.661 117.92 231.147 118.517 231.632 118.89C232.117 119.264 232.715 119.6 233.424 119.898C233.872 120.16 234.152 120.384 234.264 120.57C234.413 120.757 234.488 120.981 234.488 121.242C234.488 121.504 234.395 121.728 234.208 121.914C234.021 122.064 233.741 122.138 233.368 122.138H207.16C206.861 122.138 206.6 122.045 206.376 121.858C206.189 121.672 206.096 121.429 206.096 121.13C206.096 120.906 206.152 120.72 206.264 120.57C206.376 120.384 206.581 120.234 206.88 120.122L208.952 119.674C209.773 119.45 210.259 119.114 210.408 118.666C210.595 118.218 210.445 117.584 209.96 116.762L199.544 97.6662L211.808 85.7382ZM256.162 93.3542C256.162 88.4262 256.871 84.3382 258.29 81.0902C259.708 77.8422 261.538 75.3968 263.778 73.7542C266.055 72.1115 268.444 71.2902 270.946 71.2902C273.932 71.2902 276.21 72.2422 277.778 74.1462C279.383 76.0502 280.186 78.8875 280.186 82.6582C280.186 86.1302 279.402 88.7062 277.834 90.3862C276.266 92.0662 274.268 92.9062 271.842 92.9062C269.564 92.9062 267.884 92.3088 266.802 91.1142C265.719 89.8822 265.14 88.1088 265.066 85.7942L264.954 83.7782C264.954 82.8075 264.748 82.0608 264.338 81.5382C263.964 80.9782 263.33 80.6982 262.434 80.6982C261.5 80.6982 260.623 81.1648 259.802 82.0982C259.018 82.9942 258.383 84.3942 257.898 86.2982C257.412 88.2022 257.17 90.6102 257.17 93.5222L256.162 93.3542ZM256.946 73.1382L257.17 89.7142V116.65C257.17 117.285 257.3 117.826 257.562 118.274C257.86 118.722 258.29 119.002 258.85 119.114L263.946 120.01C264.356 120.085 264.636 120.216 264.786 120.402C264.935 120.589 265.01 120.832 265.01 121.13C265.01 121.429 264.898 121.672 264.674 121.858C264.487 122.045 264.188 122.138 263.778 122.138H236.73C236.319 122.138 236.002 122.045 235.778 121.858C235.591 121.634 235.498 121.373 235.498 121.074C235.498 120.85 235.572 120.645 235.722 120.458C235.908 120.234 236.17 120.066 236.506 119.954L238.746 119.506C239.268 119.357 239.623 119.114 239.81 118.778C240.034 118.405 240.146 117.901 240.146 117.266V80.0822C240.146 79.5968 240.071 79.2422 239.922 79.0182C239.772 78.7568 239.511 78.5888 239.138 78.5142L236.338 78.4582C236.076 78.3835 235.871 78.2715 235.722 78.1222C235.572 77.9355 235.498 77.7302 235.498 77.5062C235.498 77.2448 235.591 77.0208 235.778 76.8342C235.964 76.6102 236.263 76.4235 236.674 76.2742L253.698 72.0742C254.22 71.8875 254.631 71.7755 254.93 71.7382C255.266 71.6635 255.564 71.6262 255.826 71.6262C256.199 71.6262 256.46 71.7568 256.61 72.0182C256.796 72.2422 256.908 72.6155 256.946 73.1382ZM304.476 120.85C306.716 120.85 308.452 120.29 309.684 119.17C310.953 118.05 311.588 116.613 311.588 114.858C311.588 113.589 311.289 112.432 310.692 111.386C310.094 110.341 309.068 109.37 307.612 108.474C306.156 107.578 304.121 106.72 301.508 105.898C296.692 104.33 292.921 102.65 290.196 100.858C287.47 99.0288 285.548 96.9755 284.428 94.6982C283.345 92.4209 282.804 89.8075 282.804 86.8582C282.804 81.8928 284.484 78.0475 287.844 75.3222C291.204 72.5968 295.814 71.2342 301.676 71.2342C303.99 71.2342 305.876 71.4582 307.332 71.9062C308.825 72.3168 309.982 72.7275 310.804 73.1382C311.662 73.5488 312.26 73.7542 312.596 73.7542C313.044 73.7542 313.753 73.5488 314.724 73.1382C315.694 72.7275 316.665 72.3168 317.636 71.9062C318.644 71.4582 319.353 71.2342 319.764 71.2342C320.062 71.2342 320.342 71.3275 320.604 71.5142C320.865 71.6635 321.052 71.9995 321.164 72.5222L323.628 87.4742C323.814 88.1462 323.852 88.6875 323.74 89.0982C323.665 89.5088 323.478 89.7888 323.18 89.9382C322.844 90.0875 322.526 90.1062 322.228 89.9942C321.929 89.8448 321.649 89.5835 321.388 89.2102C319.073 85.2155 316.908 82.0795 314.892 79.8022C312.913 77.5248 310.916 75.9195 308.9 74.9862C306.921 74.0155 304.793 73.5302 302.516 73.5302C300.089 73.5302 298.241 74.1275 296.972 75.3222C295.74 76.4795 295.124 78.0288 295.124 79.9702C295.124 81.3515 295.441 82.6022 296.076 83.7222C296.748 84.8422 297.942 85.8875 299.66 86.8582C301.377 87.7915 303.822 88.6875 306.996 89.5462C311.102 90.7035 314.406 92.1409 316.908 93.8582C319.446 95.5382 321.276 97.5168 322.396 99.7942C323.553 102.034 324.132 104.536 324.132 107.298C324.132 110.584 323.31 113.421 321.668 115.81C320.062 118.2 317.878 120.048 315.116 121.354C312.353 122.661 309.254 123.314 305.82 123.314C303.654 123.314 301.825 123.034 300.332 122.474C298.838 121.952 297.644 121.429 296.748 120.906C295.889 120.384 295.329 120.122 295.068 120.122C294.732 120.122 294.116 120.365 293.22 120.85C292.361 121.336 291.465 121.821 290.532 122.306C289.598 122.792 288.908 123.034 288.46 123.034C288.124 123.034 287.825 122.904 287.564 122.642C287.302 122.381 287.116 121.914 287.004 121.242L284.932 108.362C284.857 107.578 284.857 107 284.932 106.626C285.006 106.253 285.23 105.992 285.604 105.842C285.865 105.73 286.145 105.768 286.444 105.954C286.742 106.104 287.022 106.384 287.284 106.794C290.345 111.872 293.257 115.493 296.02 117.658C298.782 119.786 301.601 120.85 304.476 120.85Z" fill="#011936"/>
<path d="M104.874 27.9269C105.715 27.891 106.518 27.8522 107.361 27.8652C107.988 29.1598 109.275 32.0359 109.712 33.3154C109.463 34.2535 108.829 35.6417 108.447 36.6081C110.206 38.7151 111.567 40.082 111.588 42.9494C111.618 47.0696 108.082 49.5008 107.448 53.3121C107.183 54.9077 108.802 57.2669 108.541 59.0436C108.386 60.798 107.557 61.896 107.309 63.4105C106.589 67.785 106.277 72.496 105.526 76.8388C103.606 78.6998 101.161 80.3718 99.3037 82.3134C99.1714 82.5082 99.182 82.9998 99.2084 83.2012C99.6342 86.4712 100.339 89.6993 100.992 92.9298C101.166 93.7888 101.311 94.6552 101.61 95.4797C109.948 97.2043 118.354 98.5803 126.807 99.6038C126.536 101.505 126.18 103.694 125.667 105.54C123.111 105.313 117.578 105.942 115.061 106.409C96.8804 109.791 80.1967 119.726 67.6612 133.198C65.1928 135.851 62.7086 138.801 60.6526 141.77C57.4721 141.065 55.4942 140.567 52.378 139.361C52.9751 138.424 53.9053 137.24 54.5836 136.361C56.3098 134.13 58.1145 131.961 59.9943 129.858C71.9362 116.55 85.0565 108.063 102.485 103.699C104.677 103.156 106.89 102.695 109.118 102.32C109.758 102.213 114.136 101.654 114.316 101.528L114.241 101.448C112.994 101.062 111.802 100.888 110.532 100.658C106.168 99.8717 102.429 99.9506 98.0419 100.189C98.0255 98.0148 97.6243 85.3278 96.8516 84.5427C96.4595 84.5633 94.1201 86.7737 93.6014 87.2406C88.0338 92.2607 82.7326 97.6737 78.4746 103.868C77.729 104.951 76.6941 106.311 76.1124 107.475C76.3355 101.268 77.11 94.8566 79.7446 89.1896L69.2351 79.1963C68.3925 78.4047 67.5426 77.6213 66.6854 76.8454C65.9007 76.1398 64.9036 75.4153 64.4648 74.4577C63.7893 72.9841 63.0926 71.5174 62.4022 70.0509C61.3578 70.7378 59.1706 73.1285 59.0851 74.4248C58.9937 75.8107 59.1945 77.9863 59.328 79.4265C60.0777 87.5102 61.2556 95.5759 62.4743 103.602L63.4353 109.927C63.6505 111.308 63.9769 113.126 64.0894 114.485C54.6113 118.188 46.1837 124.155 39.5422 131.865C39.008 131.551 37.946 130.671 37.4427 130.253C34.7959 128.074 32.3679 125.64 30.1932 122.989C31.4443 121.983 33.1487 120.799 34.4766 119.862C39.7833 116.099 45.3782 112.761 51.2093 109.877C53.323 108.829 55.3807 107.978 57.4951 106.987C57.4794 105.18 57.2583 103.18 57.1486 101.36C56.8717 96.7653 56.3057 92.139 55.9846 87.5579C54.9711 87.1107 54.0032 86.7071 53.0835 86.0783C50.0863 84.0273 47.9389 80.4885 47.2525 76.9563C47.7842 75.6953 48.393 74.8117 48.7853 73.4255C49.5344 70.7791 48.9424 68.6892 47.6538 66.347C47.1115 68.1943 46.8528 70.1074 46.5389 72.0084C44.359 70.1493 41.7676 68.0636 41.1092 65.1433C40.1341 60.934 42.2462 56.6008 44.2684 53.1304C46.7692 48.8387 49.5428 48.3774 54.0523 49.6977C59.3369 51.245 63.1384 49.9137 66.1327 45.0546C62.9395 46.5435 59.7563 47.3912 56.245 46.5652C52.8354 45.763 51.7952 45.2 48.2648 45.701C49.1579 43.714 50.141 42.1374 51.8435 40.7579C55.5264 37.7738 60.2563 40.2597 64.4357 40.3765C66.8438 40.4438 68.2532 40.09 70.511 39.392C70.3794 40.1386 70.1403 41.1077 69.935 41.8428C69.4686 43.5135 69.0487 45.5565 68.4552 47.1703C67.4434 49.9218 65.1532 52.4858 62.7517 54.1058C61.9396 54.6535 60.8419 55.1876 59.9621 55.7081C59.9336 56.5313 59.829 57.4402 59.7616 58.2728C60.3571 59.3878 61.0979 60.1771 61.7657 61.544C60.5788 61.8489 60.3356 62.0575 59.1981 61.5141C57.6874 60.8669 56.5498 62.2198 55.0067 61.1452C53.9101 60.3816 52.9503 59.5092 51.908 58.6731C51.4217 58.2829 50.9786 57.9085 51.2103 57.2058C51.6779 55.7868 52.8073 54.8937 54.0607 54.1942C53.7516 54.1355 53.4409 54.0853 53.129 54.0438C47.5411 53.3014 47.083 59.6493 49.8849 62.9119C51.4978 64.9421 53.5353 65.782 56.0136 66.3526C58.8085 66.9962 60.8346 67.4437 63.2151 65.4713C63.9501 66.5876 67.477 72.9965 67.9777 73.3204C68.8637 73.8935 92.2845 73.2466 95.5298 73.5759C96.6831 73.6929 97.8315 74.2064 98.9231 74.5867C100.348 75.0831 101.781 75.5898 103.23 76.0104C103.575 75.7878 103.783 75.6114 104.095 75.3528C104.288 74.5398 104.399 73.4637 104.51 72.6185L105.092 68.2234C105.366 66.1729 105.623 64.12 105.86 62.0651C105.962 61.2035 106.411 59.6643 106.578 58.8157C106.809 57.6452 106.656 56.8988 106.578 55.6258V54.3309C106.578 54.3309 106.578 54.3309 106.348 51.1881C106.578 50.7154 105.706 51.2057 105.387 51.2123C105.046 50.9819 101.374 42.7581 100.888 41.7028C101.025 41.284 101.189 40.8934 101.354 40.4854C103.015 41.1798 105.441 42.5973 107.122 43.469C106.852 42.3243 106.126 40.6994 105.635 39.5958C105.123 38.446 104.405 36.688 103.821 35.6218C103.612 35.2406 101.805 33.3162 101.435 32.9107C100.02 31.3676 98.6223 29.8084 97.2429 28.2333C99.7731 28.1026 102.341 28.0229 104.874 27.9269Z" fill="#011936"/>
<path d="M120.311 111.608C121.431 111.545 122.369 111.59 123.473 111.665C121.497 116.163 118.846 120.332 115.612 124.031C105.289 135.867 90.8895 141.883 75.4044 142.938C74.5059 143.025 73.0646 143.011 72.1599 142.989C73.6773 139.789 76.4466 135.883 78.8354 133.195C86.7819 124.255 98.0468 116.979 109.488 113.509C113.128 112.406 116.57 111.877 120.311 111.608Z" fill="#011936"/>
<path d="M81.9411 21.593C86.3446 20.918 90.4662 24.5627 92.8854 27.8493C90.5731 28.0291 88.2246 28.0911 85.9205 28.3305C84.5074 28.4774 82.348 28.572 81.2342 29.5196C80.117 30.4697 79.1709 31.7953 78.1245 32.8742C75.9275 35.1385 74.0129 35.6473 70.9714 35.959C69.7325 36.0959 68.4872 36.1681 67.2407 36.1752C64.8325 36.11 62.3076 35.7823 59.8967 35.6382C58.6607 35.5644 57.4521 35.5575 56.2134 35.5472C57.5054 34.2411 59.1404 32.762 60.8453 32.0168C61.8816 31.5638 63.376 31.466 64.5148 31.3298C66.525 31.0893 67.8588 30.6642 69.6404 29.7164C74.3964 27.1861 76.2452 22.1934 81.9411 21.593Z" fill="#011936"/>
<path d="M89.617 14.0276C93.0334 13.7393 98.1858 15.3473 100.491 17.9203C101.874 19.4642 103.771 22.4972 104.79 24.3879C102.048 24.4425 99.21 24.5913 96.4595 24.6857C96.1776 24.6887 95.8948 24.7046 95.6581 24.5438C94.9799 24.084 94.2927 23.4211 93.6754 22.8659C91.9902 21.35 90.1472 20.1814 87.9648 19.5218C85.6894 18.8339 83.715 18.8734 81.3936 18.9967C83.4897 17.0827 86.763 14.3804 89.617 14.0276Z" fill="#011936"/>
<path d="M73.7534 14.8562C75.6582 14.6767 78.3808 14.9885 80.232 15.4165C76.9168 18.1751 73.9 19.6167 70.9714 23.3607C69.935 24.6857 69.6404 25.8129 67.003 27.3356C65.1672 28.2537 61.5932 28.9093 61.5932 28.9093C61.5932 28.9093 62.6692 23.7743 63.6505 21.652C65.7172 17.9203 68.3105 15.2631 73.7534 14.8562Z" fill="#011936"/>
<path d="M85.5916 37.3574C86.689 37.2691 87.9254 37.4716 89.026 37.5834C91.7568 37.8608 94.1973 38.289 96.8623 38.8964C95.8438 40.95 93.4608 44.2453 92.0839 46.2784C90.9841 46.5109 89.5201 46.6815 88.3832 46.8443C88.4227 45.6795 88.389 45.3594 87.7092 44.4354C85.4305 42.2559 83.0647 43.4517 80.7976 44.7487C79.3517 44.3749 76.7673 43.6117 75.3869 43.3786C77.4175 42.1016 79.4701 40.8611 81.5448 39.6579C82.7483 38.9471 84.366 37.9364 85.5916 37.3574Z" fill="#011936"/>
<path d="M100.881 51.0757C101.66 50.992 104.464 52.1615 105.18 52.557C104.963 53.18 102.721 57.1159 102.315 57.5374C102.051 57.6072 101.965 57.549 101.707 57.4585L98.1817 55.9548C97.3062 55.9164 96.2162 55.9524 95.317 55.9442C94.8583 55.4424 94.5245 55.0361 94.1053 54.4993C96.0625 53.4028 98.8245 52.1355 100.881 51.0757Z" fill="#011936"/>
<path d="M97.9975 58.8784C98.7267 58.7776 99.635 59.4462 100.25 59.6404C102.428 60.3276 102.447 59.9988 102.938 62.2099C103.309 63.8861 103.346 64.3361 103.133 66.0659C102.523 65.1783 101.988 64.1842 101.437 63.251L99.3785 62.5409C98.2228 62.1789 97.3819 61.5967 96.1242 61.8733C94.5812 62.2125 93.0786 62.6697 91.5389 63.023C91.5981 62.5666 91.7395 61.9604 91.8357 61.4955C93.7083 60.6159 96.0633 59.6647 97.9975 58.8784Z" fill="#011936"/>
<path d="M97.1509 64.4572C97.7986 64.4712 101.234 65.7247 102.024 66.0174C102.09 67.3457 102.185 68.7568 102.177 70.0792L100.538 68.689C99.9613 68.4184 98.7645 68.0634 98.1348 67.8608L93.9762 66.5248C95.0309 65.8303 96.0896 65.141 97.1509 64.4572Z" fill="#011936"/>
<path d="M57.9356 30.5878C59.1647 29.3587 61.5932 28.9093 61.5932 28.9093C61.5932 28.9093 62.6692 23.7743 63.6505 21.652C63.6505 21.652 63.2669 21.652 61.1522 21.8337C57.5133 22.3946 52.3157 24.2942 50.1921 27.3753C49.2232 28.7808 48.5987 30.1723 48.1704 31.8359C48.0121 32.4507 47.8306 33.3209 47.6397 33.8896C38.149 36.939 36.9834 46.9523 39.5951 55.3267L39.7666 55.9998C40.7623 53.4099 41.8953 50.9327 43.6563 48.7565C43.854 48.4664 46.8398 45.701 48.2648 45.701C47.4632 43.0393 46.7659 40.6816 49.2914 38.5435C51.0871 37.0233 54.1014 35.6382 56.2134 35.5472C57.0702 34.2193 56.7066 31.8168 57.9356 30.5878Z" fill="#011936"/>
</g>
<defs>
<clipPath id="clip0_1374_1572">
<rect width="382" height="157" fill="white"/>
</clipPath>
</defs>
</svg>
