<svg width="663" height="157" viewBox="0 0 663 157" fill="none" xmlns="http://www.w3.org/2000/svg">
<g clip-path="url(#clip0_1374_1572)">
<path d="M380.752 55.904C383.488 55.904 385.672 56.624 387.304 58.064C388.936 59.456 389.752 61.52 389.752 64.256C389.752 66.8 389.008 69.008 387.52 70.88C386.08 72.704 383.896 74.312 380.968 75.704C380.056 76.136 379.048 76.568 377.944 77C376.888 77.384 376.144 77.648 375.712 77.792L371.32 79.448C375.928 80.888 378.232 83.888 378.232 88.448C378.232 91.808 377.032 94.736 374.632 97.232C372.28 99.728 369.16 101.648 365.272 102.992C361.432 104.336 357.328 105.008 352.96 105.008C349.168 105.008 345.712 104.504 342.592 103.496C339.52 102.44 337.096 100.928 335.32 98.96C333.544 96.944 332.656 94.568 332.656 91.832C332.656 88.232 334.12 84.992 337.048 82.112C339.976 79.184 343.672 77.168 348.136 76.064C346.36 75.104 345.064 74 344.248 72.752C343.48 71.456 343.096 70.136 343.096 68.792C343.096 66.92 343.792 65.264 345.184 63.824C346.576 62.384 348.328 61.256 350.44 60.44C352.6 59.624 354.784 59.216 356.992 59.216C359.584 59.216 361.672 59.768 363.256 60.872C364.888 61.976 365.704 63.416 365.704 65.192C365.704 66.728 365.104 67.952 363.904 68.864C362.704 69.728 361.264 70.16 359.584 70.16V68.936C360.928 68.936 362.032 68.624 362.896 68C363.808 67.328 364.264 66.392 364.264 65.192C364.264 63.8 363.64 62.648 362.392 61.736C361.144 60.776 359.464 60.296 357.352 60.296C354.472 60.296 352.12 61.184 350.296 62.96C348.472 64.736 347.56 66.992 347.56 69.728C347.56 71.888 348.088 73.856 349.144 75.632C350.872 75.344 352.384 75.2 353.68 75.2C355.408 75.2 356.272 75.704 356.272 76.712C356.272 77.192 356.056 77.576 355.624 77.864C355.192 78.104 354.664 78.224 354.04 78.224C352.84 78.224 351.184 77.696 349.072 76.64C345.808 77.504 343.144 79.04 341.08 81.248C339.064 83.456 338.056 85.976 338.056 88.808C338.056 92.312 339.568 95 342.592 96.872C345.664 98.744 349.552 99.68 354.256 99.68C357.376 99.68 360.64 99.272 364.048 98.456C367.456 97.64 370.36 96.32 372.76 94.496C375.16 92.672 376.36 90.32 376.36 87.44C376.36 83.744 374.2 81.272 369.88 80.024C368.536 80.552 367.12 81.152 365.632 81.824C362.416 83.216 360.232 84.392 359.08 85.352C357.928 86.264 357.352 87.344 357.352 88.592C357.352 89.84 357.76 90.8 358.576 91.472C359.44 92.096 360.52 92.408 361.816 92.408C363.976 92.408 365.728 91.616 367.072 90.032L367.792 90.824C366.256 92.648 364.216 93.56 361.672 93.56C359.848 93.56 358.336 93.08 357.136 92.12C355.984 91.16 355.408 89.624 355.408 87.512C355.408 85.64 355.912 84.032 356.92 82.688C357.976 81.296 359.392 80.12 361.168 79.16C362.944 78.152 365.248 77.096 368.08 75.992C368.224 75.944 369.712 75.392 372.544 74.336C375.376 73.28 377.968 72.224 380.32 71.168C382.528 70.16 384.328 69.056 385.72 67.856C387.112 66.608 387.808 65.024 387.808 63.104C387.808 61.28 387.136 59.816 385.792 58.712C384.448 57.56 382.744 56.984 380.68 56.984C379.48 56.984 378.712 57.2 378.376 57.632C378.856 57.92 379.216 58.304 379.456 58.784C379.744 59.264 379.888 59.792 379.888 60.368C379.888 61.472 379.408 62.432 378.448 63.248C377.488 64.064 376.384 64.472 375.136 64.472C374.176 64.472 373.384 64.208 372.76 63.68C372.184 63.152 371.896 62.408 371.896 61.448C371.896 60.44 372.232 59.552 372.904 58.784C373.576 58.016 374.44 57.392 375.496 56.912C377.032 56.24 378.784 55.904 380.752 55.904Z" fill="#011936"/>
<path d="M403.432 104V101.312H404.264C405.245 101.312 406.12 101.205 406.888 100.992C407.699 100.779 408.339 100.352 408.808 99.712C409.277 99.0293 409.512 98.0267 409.512 96.704V65.344C409.512 64.064 409.256 63.1253 408.744 62.528C408.275 61.888 407.635 61.4827 406.824 61.312C406.056 61.0987 405.203 60.992 404.264 60.992H403.432V58.304H421.416C426.792 58.304 430.76 59.4987 433.32 61.888C435.88 64.2347 437.16 67.4987 437.16 71.68C437.16 73.6 436.861 75.4347 436.264 77.184C435.667 78.8907 434.685 80.4267 433.32 81.792C431.997 83.1573 430.227 84.2453 428.008 85.056C425.832 85.824 423.165 86.208 420.008 86.208H415.976V97.024C415.976 98.2613 416.211 99.2 416.68 99.84C417.192 100.437 417.832 100.843 418.6 101.056C419.411 101.227 420.285 101.312 421.224 101.312H423.336V104H403.432ZM419.368 83.2C421.288 83.2 422.931 83.008 424.296 82.624C425.704 82.1973 426.835 81.536 427.688 80.64C428.584 79.744 429.224 78.592 429.608 77.184C430.035 75.7333 430.248 73.984 430.248 71.936C430.248 69.5467 429.928 67.584 429.288 66.048C428.648 64.4693 427.603 63.296 426.152 62.528C424.701 61.76 422.76 61.376 420.328 61.376H415.976V83.2H419.368ZM452.745 104.64C450.868 104.64 449.161 104.277 447.625 103.552C446.132 102.784 444.958 101.653 444.105 100.16C443.252 98.624 442.825 96.704 442.825 94.4C442.825 90.9867 444.02 88.4693 446.409 86.848C448.841 85.2267 452.51 84.3307 457.417 84.16L462.729 83.968V80.128C462.729 78.592 462.601 77.248 462.345 76.096C462.089 74.9013 461.534 73.9627 460.681 73.28C459.828 72.5973 458.526 72.256 456.777 72.256C455.156 72.256 453.918 72.5547 453.065 73.152C452.212 73.7493 451.636 74.5813 451.337 75.648C451.081 76.672 450.953 77.8667 450.953 79.232C449.161 79.232 447.796 78.9333 446.857 78.336C445.961 77.696 445.513 76.6507 445.513 75.2C445.513 73.7067 446.025 72.512 447.049 71.616C448.116 70.72 449.524 70.08 451.273 69.696C453.022 69.2693 454.942 69.056 457.033 69.056C460.958 69.056 463.881 69.888 465.801 71.552C467.764 73.216 468.745 76.0747 468.745 80.128V96.704C468.745 97.8987 468.873 98.8373 469.129 99.52C469.385 100.16 469.812 100.629 470.409 100.928C471.006 101.184 471.774 101.312 472.713 101.312H472.905V104H464.265L463.241 98.496H462.729C461.833 99.6907 460.958 100.757 460.105 101.696C459.252 102.592 458.249 103.317 457.097 103.872C455.988 104.384 454.537 104.64 452.745 104.64ZM454.217 100.672C455.966 100.672 457.46 100.309 458.697 99.584C459.977 98.8587 460.958 97.8347 461.641 96.512C462.366 95.1467 462.729 93.568 462.729 91.776V86.592L458.633 86.784C456.201 86.8693 454.281 87.232 452.873 87.872C451.508 88.512 450.526 89.408 449.929 90.56C449.332 91.6693 449.033 93.056 449.033 94.72C449.033 96.0427 449.225 97.152 449.609 98.048C449.993 98.9013 450.569 99.5627 451.337 100.032C452.105 100.459 453.065 100.672 454.217 100.672ZM477.799 104V101.312H477.992C478.973 101.312 479.848 101.205 480.616 100.992C481.426 100.779 482.066 100.352 482.536 99.712C483.005 99.0293 483.24 98.0267 483.24 96.704V76.736C483.24 75.456 482.984 74.5173 482.472 73.92C482.002 73.28 481.362 72.8747 480.552 72.704C479.784 72.4907 478.93 72.384 477.992 72.384H477.799V69.696H487.656L488.872 76.032H489.192C489.746 74.752 490.344 73.5787 490.984 72.512C491.624 71.4453 492.477 70.6133 493.544 70.016C494.61 69.376 496.082 69.056 497.96 69.056C500.306 69.056 502.034 69.4613 503.144 70.272C504.296 71.0827 504.872 72.2347 504.872 73.728C504.872 75.0507 504.402 76.1387 503.464 76.992C502.568 77.8453 501.053 78.272 498.92 78.272C498.92 77.0773 498.813 76.1173 498.6 75.392C498.386 74.6667 498.024 74.1333 497.512 73.792C497.042 73.4507 496.381 73.28 495.528 73.28C494.333 73.28 493.33 73.7493 492.52 74.688C491.709 75.6267 491.069 76.8213 490.6 78.272C490.13 79.7227 489.789 81.2373 489.576 82.816C489.362 84.352 489.256 85.7387 489.256 86.976V97.024C489.256 98.2613 489.49 99.2 489.96 99.84C490.472 100.437 491.112 100.843 491.88 101.056C492.69 101.227 493.565 101.312 494.503 101.312H496.296V104H477.799ZM521.173 104.64C517.93 104.64 515.562 103.915 514.069 102.464C512.618 100.971 511.893 98.3893 511.893 94.72V73.344H507.029V70.784C507.797 70.784 508.65 70.6347 509.589 70.336C510.527 69.9947 511.338 69.4613 512.021 68.736C512.746 67.968 513.343 67.0293 513.812 65.92C514.282 64.8107 514.666 63.4453 514.965 61.824H517.909V69.696H526.293V73.344H517.909V94.912C517.909 97.088 518.357 98.688 519.253 99.712C520.149 100.736 521.322 101.248 522.773 101.248C523.541 101.248 524.245 101.205 524.885 101.12C525.525 101.035 526.186 100.928 526.869 100.8V103.616C526.314 103.872 525.482 104.107 524.373 104.32C523.263 104.533 522.197 104.64 521.173 104.64ZM530.105 104V101.312H530.617C531.598 101.312 532.473 101.205 533.241 100.992C534.051 100.779 534.691 100.352 535.161 99.712C535.63 99.0293 535.865 98.0267 535.865 96.704V76.736C535.865 75.456 535.63 74.5173 535.161 73.92C534.691 73.28 534.073 72.8747 533.305 72.704C532.537 72.4907 531.683 72.384 530.745 72.384H530.424V69.696H540.793L541.625 74.88H541.945C542.841 73.2587 543.779 72.0427 544.76 71.232C545.785 70.3787 546.894 69.8027 548.089 69.504C549.283 69.2053 550.563 69.056 551.929 69.056C555.299 69.056 557.923 70.0587 559.801 72.064C561.721 74.0267 562.681 77.2053 562.681 81.6V96.704C562.681 98.0267 562.873 99.0293 563.257 99.712C563.683 100.352 564.259 100.779 564.985 100.992C565.71 101.205 566.542 101.312 567.481 101.312H567.801V104H556.665V81.92C556.665 79.1467 556.131 76.992 555.065 75.456C554.041 73.92 552.227 73.152 549.625 73.152C547.705 73.152 546.169 73.6427 545.017 74.624C543.907 75.5627 543.097 76.8213 542.585 78.4C542.115 79.9787 541.881 81.6853 541.881 83.52V97.024C541.881 98.2613 542.115 99.2 542.585 99.84C543.054 100.437 543.673 100.843 544.441 101.056C545.209 101.227 546.062 101.312 547.001 101.312H547.321V104H530.105ZM587.931 104.64C583.28 104.64 579.632 103.104 576.987 100.032C574.384 96.96 573.083 92.6507 573.083 87.104C573.083 81.1307 574.32 76.6293 576.795 73.6C579.269 70.5707 582.768 69.056 587.291 69.056C591.429 69.056 594.672 70.336 597.019 72.896C599.408 75.456 600.603 79.2747 600.603 84.352V87.296H579.291C579.376 90.4107 579.781 92.9493 580.507 94.912C581.232 96.8747 582.277 98.3253 583.643 99.264C585.051 100.16 586.779 100.608 588.827 100.608C590.32 100.608 591.643 100.395 592.795 99.968C593.989 99.5413 595.013 98.9867 595.867 98.304C596.763 97.6213 597.467 96.896 597.979 96.128C598.277 96.256 598.555 96.512 598.811 96.896C599.067 97.28 599.195 97.7493 599.195 98.304C599.195 99.1573 598.789 100.075 597.979 101.056C597.168 102.037 595.931 102.891 594.267 103.616C592.603 104.299 590.491 104.64 587.931 104.64ZM594.139 83.84C594.139 81.5787 593.904 79.5947 593.435 77.888C593.008 76.1813 592.283 74.8587 591.259 73.92C590.235 72.9813 588.869 72.512 587.163 72.512C585.584 72.512 584.24 72.96 583.131 73.856C582.064 74.7093 581.211 75.968 580.571 77.632C579.973 79.296 579.589 81.3653 579.419 83.84H594.139ZM605.924 104V101.312H606.117C607.098 101.312 607.973 101.205 608.741 100.992C609.551 100.779 610.191 100.352 610.661 99.712C611.13 99.0293 611.365 98.0267 611.365 96.704V76.736C611.365 75.456 611.109 74.5173 610.597 73.92C610.127 73.28 609.487 72.8747 608.677 72.704C607.909 72.4907 607.055 72.384 606.117 72.384H605.924V69.696H615.781L616.997 76.032H617.317C617.871 74.752 618.469 73.5787 619.109 72.512C619.749 71.4453 620.602 70.6133 621.669 70.016C622.735 69.376 624.207 69.056 626.085 69.056C628.431 69.056 630.159 69.4613 631.269 70.272C632.421 71.0827 632.997 72.2347 632.997 73.728C632.997 75.0507 632.527 76.1387 631.589 76.992C630.693 77.8453 629.178 78.272 627.045 78.272C627.045 77.0773 626.938 76.1173 626.725 75.392C626.511 74.6667 626.149 74.1333 625.637 73.792C625.167 73.4507 624.506 73.28 623.653 73.28C622.458 73.28 621.455 73.7493 620.645 74.688C619.834 75.6267 619.194 76.8213 618.725 78.272C618.255 79.7227 617.914 81.2373 617.701 82.816C617.487 84.352 617.381 85.7387 617.381 86.976V97.024C617.381 98.2613 617.615 99.2 618.085 99.84C618.597 100.437 619.237 100.843 620.005 101.056C620.815 101.227 621.69 101.312 622.628 101.312H624.421V104H605.924ZM647.378 104.64C645.244 104.64 643.388 104.384 641.81 103.872C640.231 103.36 638.994 102.613 638.098 101.632C637.244 100.608 636.818 99.3493 636.818 97.856C636.818 96.704 637.052 95.808 637.522 95.168C637.991 94.528 638.524 94.08 639.122 93.824C639.762 93.568 640.338 93.44 640.85 93.44C640.85 94.9333 641.063 96.2987 641.49 97.536C641.916 98.7733 642.642 99.7547 643.666 100.48C644.69 101.205 646.055 101.568 647.762 101.568C650.023 101.568 651.751 101.035 652.946 99.968C654.183 98.8587 654.802 97.4507 654.802 95.744C654.802 94.6773 654.567 93.8027 654.098 93.12C653.671 92.4373 652.882 91.776 651.73 91.136C650.62 90.4533 649.02 89.664 646.93 88.768C644.754 87.7867 642.94 86.848 641.49 85.952C640.082 85.0133 639.015 83.9467 638.29 82.752C637.607 81.5147 637.266 79.9787 637.266 78.144C637.266 75.2427 638.354 73.024 640.53 71.488C642.748 69.9093 645.671 69.12 649.298 69.12C651.346 69.12 653.052 69.3973 654.418 69.952C655.826 70.464 656.871 71.168 657.554 72.064C658.279 72.96 658.642 73.9413 658.642 75.008C658.642 76.16 658.236 77.0987 657.426 77.824C656.658 78.5067 655.527 78.848 654.034 78.848C654.034 76.7147 653.586 75.0507 652.69 73.856C651.794 72.6613 650.407 72.064 648.53 72.064C647.079 72.064 645.906 72.2773 645.01 72.704C644.114 73.1307 643.452 73.728 643.026 74.496C642.642 75.264 642.45 76.16 642.45 77.184C642.45 78.2507 642.706 79.1467 643.218 79.872C643.772 80.5973 644.626 81.28 645.778 81.92C646.972 82.5173 648.508 83.2 650.385 83.968C652.647 84.9067 654.482 85.8453 655.89 86.784C657.298 87.7227 658.322 88.8107 658.962 90.048C659.644 91.2853 659.986 92.8 659.986 94.592C659.986 97.92 658.834 100.437 656.53 102.144C654.226 103.808 651.175 104.64 647.378 104.64Z" fill="#011936"/>
<path d="M185.344 104V100.096H188.096C188.693 100.096 189.227 99.9893 189.696 99.776C190.165 99.52 190.528 99.1573 190.784 98.688C191.083 98.2187 191.232 97.6213 191.232 96.896V65.216C191.232 64.576 191.104 64.0427 190.848 63.616C190.635 63.1467 190.315 62.8053 189.888 62.592C189.504 62.336 189.035 62.208 188.48 62.208H185.344V58.304H208.704V62.208H206.528C206.016 62.208 205.568 62.336 205.184 62.592C204.843 62.8053 204.565 63.1467 204.352 63.616C204.139 64.0427 204.032 64.5973 204.032 65.28V80.832L212.608 71.296C213.504 70.3147 214.229 69.4613 214.784 68.736C215.381 67.968 215.829 67.2427 216.128 66.56C216.427 65.8347 216.576 65.1093 216.576 64.384C216.576 63.8293 216.448 63.4027 216.192 63.104C215.936 62.7627 215.509 62.528 214.912 62.4C214.357 62.2293 213.589 62.144 212.608 62.144V58.304H232V62.144C230.72 62.144 229.525 62.3787 228.416 62.848C227.307 63.3173 226.261 63.9573 225.28 64.768C224.299 65.5787 223.317 66.496 222.336 67.52L213.888 76.16L226.368 94.464C227.093 95.5307 227.733 96.448 228.288 97.216C228.885 97.9413 229.44 98.5173 229.952 98.944C230.507 99.328 231.061 99.6267 231.616 99.84C232.213 100.011 232.875 100.096 233.6 100.096H233.984V104H227.84C225.536 104 223.595 103.872 222.016 103.616C220.48 103.317 219.157 102.848 218.048 102.208C216.939 101.568 215.936 100.715 215.04 99.648C214.144 98.5813 213.205 97.2373 212.224 95.616L205.44 84.48L204.032 85.376V97.024C204.032 97.664 204.16 98.2187 204.416 98.688C204.715 99.1573 205.099 99.52 205.568 99.776C206.08 99.9893 206.613 100.096 207.168 100.096H208.704V104H185.344ZM235.344 104V100.096H237.776C238.331 100.096 238.864 100.032 239.376 99.904C239.888 99.7333 240.315 99.392 240.656 98.88C241.04 98.368 241.232 97.6 241.232 96.576V65.792C241.232 64.7253 241.019 63.9573 240.592 63.488C240.208 62.976 239.739 62.6347 239.184 62.464C238.672 62.2933 238.203 62.208 237.776 62.208H235.344V58.304H258.448C263.227 58.304 267.024 58.816 269.84 59.84C272.656 60.8213 274.661 62.2293 275.856 64.064C277.093 65.856 277.712 67.968 277.712 70.4C277.712 72.832 277.285 74.8373 276.432 76.416C275.621 77.9947 274.533 79.232 273.168 80.128C271.803 81.024 270.288 81.7067 268.624 82.176L275.92 94.528C276.517 95.5093 277.051 96.3627 277.52 97.088C277.989 97.7707 278.437 98.3467 278.864 98.816C279.333 99.2427 279.803 99.5627 280.272 99.776C280.741 99.9893 281.232 100.096 281.744 100.096H282.192V104H279.184C277.349 104 275.643 103.936 274.064 103.808C272.485 103.637 271.056 103.36 269.776 102.976C268.496 102.549 267.387 101.952 266.448 101.184C265.509 100.416 264.741 99.4347 264.144 98.24L257.424 84.416H254.032V96.576C254.032 97.6 254.16 98.368 254.416 98.88C254.672 99.392 255.035 99.7333 255.504 99.904C256.016 100.032 256.571 100.096 257.168 100.096H258.704V104H235.344ZM256.912 80.192C258.576 80.192 259.941 79.872 261.008 79.232C262.075 78.5493 262.843 77.5467 263.312 76.224C263.824 74.8587 264.08 73.1733 264.08 71.168C264.08 69.12 263.803 67.4773 263.248 66.24C262.693 64.96 261.861 64.0427 260.752 63.488C259.685 62.8907 258.363 62.592 256.784 62.592H254.032V80.192H256.912ZM300.364 104.64C296.908 104.64 294.092 104.341 291.916 103.744C289.74 103.147 288.054 102.379 286.86 101.44C285.665 100.501 284.833 99.52 284.364 98.496C283.937 97.472 283.724 96.5547 283.724 95.744C283.724 93.824 284.129 92.352 284.94 91.328C285.793 90.304 286.86 89.6 288.14 89.216C289.42 88.7893 290.785 88.576 292.236 88.576C292.236 91.4773 292.705 93.7813 293.644 95.488C294.625 97.1947 295.841 98.432 297.292 99.2C298.785 99.9253 300.278 100.288 301.772 100.288C304.033 100.288 305.761 99.648 306.956 98.368C308.193 97.0453 308.812 95.6587 308.812 94.208C308.812 92.8427 308.342 91.6693 307.404 90.688C306.508 89.7067 305.206 88.7893 303.5 87.936C301.836 87.0827 299.852 86.1867 297.548 85.248C295.116 84.2667 293.089 83.2427 291.468 82.176C289.889 81.0667 288.63 79.9147 287.692 78.72C286.753 77.5253 286.092 76.2667 285.708 74.944C285.324 73.6213 285.132 72.256 285.132 70.848C285.132 68.1173 285.878 65.7707 287.372 63.808C288.908 61.8453 290.977 60.3307 293.58 59.264C296.182 58.1973 299.105 57.664 302.348 57.664C305.804 57.664 308.62 58.0693 310.796 58.88C313.014 59.6907 314.636 60.7147 315.66 61.952C316.684 63.1467 317.196 64.4053 317.196 65.728C317.196 67.3067 316.492 68.6507 315.083 69.76C313.718 70.8693 311.329 71.424 307.916 71.424C307.916 69.9733 307.638 68.544 307.084 67.136C306.529 65.6853 305.718 64.4907 304.652 63.552C303.628 62.5707 302.348 62.08 300.812 62.08C299.788 62.08 298.849 62.2507 297.996 62.592C297.142 62.9333 296.46 63.4667 295.948 64.192C295.436 64.8747 295.18 65.792 295.18 66.944C295.18 67.7973 295.457 68.672 296.012 69.568C296.566 70.464 297.654 71.4453 299.276 72.512C300.94 73.536 303.35 74.688 306.508 75.968C309.75 77.248 312.268 78.6347 314.06 80.128C315.894 81.5787 317.174 83.1573 317.9 84.864C318.625 86.528 318.988 88.384 318.988 90.432C318.988 93.2053 318.22 95.6587 316.684 97.792C315.19 99.9253 313.036 101.611 310.22 102.848C307.446 104.043 304.161 104.64 300.364 104.64Z" fill="#011936"/>
<path d="M85.1662 9.08285C91.1206 5.79109 98.787 3.85303 105.514 5.57127C102.758 9.03411 100.518 10.5102 96.394 12.1527C99.2138 13.6757 101.854 15.0765 104.016 17.5271C104.646 18.2425 105.447 19.7081 106.056 20.2599C109.558 23.4379 112.323 26.3216 113.723 31.0451C114.389 33.2696 114.618 35.6021 114.4 37.9141C114.224 39.1908 114.015 39.9139 113.533 41.1145C112.729 42.5871 112.117 43.4602 110.88 44.6253C112.871 46.7899 114.155 48.9387 114.032 51.9919C113.952 54.4469 112.872 56.7621 111.045 58.3989C109.587 59.717 108.065 60.4151 106.298 61.1918C107.446 64.355 107.907 65.8997 106.776 69.2712C105.945 71.7492 102.393 72.9911 101.898 74.1465C99.8891 78.8329 99.6522 85.141 96.0827 89.1063C95.2027 90.0844 94.0457 90.5638 93.1279 91.386C93.2595 92.9914 94.3432 102.885 94.8353 103.624C95.8126 104.17 102.633 105.791 104.223 106.21L105.768 106.619C107.089 106.98 108.581 107.442 109.918 107.645C110.975 106.947 111.942 106.227 113.018 105.578C116.89 103.241 120.854 102.849 125.22 103.855C127.273 104.329 132.094 105.574 133.911 106.562C134.502 106.768 135.091 106.977 135.679 107.189C136.691 107.61 140.788 109.309 141.382 109.989C140.943 110.37 136.503 109.108 135.673 108.932C133.237 108.419 130.794 107.946 128.344 107.511C127.645 107.385 124.484 106.75 123.849 106.893C115.144 108.866 107.64 115.683 102.668 122.891C101.706 124.285 101.364 125.317 100.468 126.673C98.8579 128.53 97.1139 130.003 95.4739 131.95C90.7498 137.455 87.3039 143.944 85.387 150.946C84.9854 152.396 84.4841 154.377 84.2964 155.853L84.1293 156.467C83.4839 156.984 82.3006 156.947 81.4708 157C83.2332 147.482 87.3943 138.572 93.5593 131.118C94.4702 130.054 95.427 129.031 96.4272 128.051C98.153 126.387 99.3054 125.74 99.9863 123.329C101.405 118.303 104.272 114.656 107.243 110.533C106.155 110.222 105.058 109.94 103.955 109.685L103.581 109.546C100.655 108.786 97.7147 108.073 94.7632 107.41C94.1624 109.099 93.5444 110.781 92.9093 112.459C92.7674 111.725 92.1677 108.496 91.8633 108.017C90.6937 106.597 90.6056 105.609 89.1064 104.245C80.5748 110.167 73.1498 117.306 67.765 126.238C67.3907 126.858 66.9027 127.615 66.4793 128.199C66.4375 126.986 66.3923 125.831 66.4175 124.615C66.2699 121.47 66.5168 117.793 66.4224 114.601C66.3854 113.354 66.5027 111.749 66.364 110.534L66.3403 110.338C66.2416 109.481 63.4706 105.548 62.7683 104.463C60.9404 101.64 59.1691 98.7811 57.4554 95.8868L56.7144 94.6197C55.289 92.191 53.924 89.7267 52.621 87.2303C52.1901 88.424 52.4572 89.9342 52.5453 91.2197L53.0024 97.6413C53.6561 106.185 54.4761 114.716 55.4619 123.228L56.4897 131.313C56.638 132.469 57.0089 134.867 56.9785 135.963C56.1275 135.368 55.6666 135.067 54.9718 134.277C53.6395 133.458 52.4125 132.921 50.995 132.294L49.228 131.751C40.2928 129.52 31.6816 132.1 24.246 137.175C12.3997 125.101 3.88851 110.966 0.978723 94.1622L0.730499 92.4868C-0.884155 81.4107 0.295164 71.4258 3.11512 60.6984L3.60275 59.0536C4.75735 54.7799 6.88333 49.7366 8.87529 45.8057C18.0907 27.6193 34.309 15.7349 53.4838 9.56631C50.8078 12.2591 50.2883 13.0972 46.6589 14.6026C43.6507 15.8503 39.9767 18.6295 37.7875 21.0242C36.9014 21.9936 36.1284 23.4451 35.0431 24.3151C33.1076 25.9933 31.0637 27.5002 29.1976 29.2568C22.0283 35.8186 16.9828 42.5639 12.6673 51.2245L12.3325 51.9658L12.1999 52.233L11.9222 52.8792C7.13945 63.9431 5.35622 74.8434 6.09128 86.8645L6.19931 88.2176C7.11873 96.1643 8.78328 102.534 12.0807 109.864C12.3905 110.551 12.7052 111.234 13.0248 111.917C15.55 116.92 18.4003 121.749 22.1899 125.906C24.1086 124.932 26.0345 123.972 27.9673 123.027L29.055 122.485L29.2906 122.369C30.26 121.858 31.2394 121.366 32.2282 120.893C33.686 119.752 43.784 114.878 44.3046 113.152C44.4463 112.682 43.6784 105.599 43.5966 104.508C43.4445 102.195 43.3434 99.8774 43.2937 97.5599C43.2194 94.0303 43.6024 94.7069 40.4649 93.2035C38.5021 92.2632 36.7474 90.4273 35.5701 88.5926C35.2721 88.0938 35.0014 87.533 34.7352 87.0124C33.2464 83.3624 33.2581 80.3374 34.4209 76.6126C34.1988 76.5064 33.9773 76.3989 33.7566 76.2898C30.1457 74.5046 28.2141 72.1581 26.9337 68.3609C26.776 67.7993 26.6252 67.0607 26.4889 66.48L26.3595 65.6886C25.8298 62.5968 26.3574 56.9675 28.0775 54.4154C30.579 50.7046 29.8467 52.5299 28.1231 48.3712C26.4922 44.518 26.487 40.1675 28.1087 36.3103C28.3437 35.7872 28.6441 35.2221 28.9044 34.7053C29.2411 35.0673 29.5708 35.4582 29.8957 35.8327C32.2055 38.7449 33.0949 41.9167 34.0339 45.4137C34.4026 40.9406 34.8327 36.2876 36.2977 32.025C37.905 27.3486 41.1165 22.2843 45.6759 20.0433C46.7369 28.0007 42.1812 34.2334 38.521 40.6036C39.9535 39.6458 40.9837 38.4118 42.1014 37.1051C45.0272 33.6845 47.834 30.4292 52.2904 29.0412C55.3112 28.1003 59.715 28.5133 62.4818 30.0197L62.8538 30.1459L63.1072 30.2564L64.7558 31.0728L61.7606 32.1394L61.1121 32.3474L59.9556 32.6313C54.6906 34.1814 49.8049 33.9384 45.2837 37.6749C42.5037 39.9723 41.327 41.7682 39.4388 44.7626C40.1088 44.3833 41.0174 43.9048 41.6493 43.5004C43.1562 41.2148 50.3008 40.976 52.7608 41.079C53.3082 41.102 55.2482 41.1685 55.6861 41.4926C55.4426 41.7449 55.4167 41.6749 54.9985 41.7574C53.3742 42.4566 51.6854 43.1584 50.0934 43.9161C52.6132 44.6086 57.2728 43.8805 59.7438 43.0396C61.2041 41.6109 61.5187 40.618 61.9546 38.6805C59.9013 38.6847 57.5758 38.5887 55.5703 38.687L54.4349 38.6347C53.5585 38.7555 52.9875 38.7597 52.0975 38.7694L51.1923 38.7208L51.2603 38.622C52.3154 38.6821 58.8213 35.8586 60.4325 35.5766C61.3054 35.4239 63.1822 34.303 64.2726 33.9871C66.1049 33.4453 67.3413 30.4239 67.8729 28.7625C66.9756 28.3962 66.1215 28.0832 65.2087 27.7557L64.7371 27.611C62.9034 26.6619 58.2887 26.015 56.1634 25.7893C57.9215 24.7543 59.9049 23.2742 61.5047 21.9821C69.6475 15.4049 79.6455 11.0027 89.2838 17.2698C85.8242 19.3023 81.5052 20.444 77.5856 19.3669C73.2643 18.1793 68.4784 17.6987 65.1156 21.4096C65.986 21.6807 67.8061 21.3066 68.7878 21.2551C72.2515 21.0737 75.2075 22.3329 78.2081 23.8951C81.8382 25.7839 87.4184 23.6571 90.8013 21.8876C91.9205 21.2892 92.9985 20.6159 94.0274 19.8725C93.6737 20.8336 93.5101 21.4794 92.7765 22.2071C91.9903 23.4851 91.9995 24.1717 90.6502 25.1303C90.8825 25.2715 91.1503 25.2296 91.4112 25.1307C94.1624 24.09 95.8962 21.8484 96.5107 19.0547C97.0246 20.1137 98.0614 22.4508 98.6176 23.2936L98.8213 23.7205L99.0147 24.0016C99.3992 24.4581 99.4221 24.5041 99.9211 24.8077L100.07 24.1856L100.247 24.149C106.118 28.0707 110.043 31.7873 110.518 39.1977C111.361 38.0835 111.746 37.001 111.755 35.6272C111.786 30.3929 108.957 27.1819 105.545 23.6509C104.813 22.8944 103.909 21.3771 103.09 20.5179L102.917 20.127C102.849 20.0589 102.673 19.7671 102.626 19.6929L102.35 19.3865C99.2551 14.2994 88.1416 12.5843 82.5821 12.19C82.4825 11.7319 82.5981 11.4915 82.716 11.0246L82.4734 10.6902C83.4118 10.0913 84.1888 9.61951 85.1662 9.08285ZM70.3922 35.1614C68.9037 36.6697 67.4274 38.5529 66.7144 40.5745C67.6387 40.2246 68.285 39.5799 69.0266 39.1506C71.1478 37.9227 77.1061 35.9663 79.4544 36.5874C80.1754 36.7723 83.5148 36.8581 84.5608 36.9604L85.1536 37.0552C87.1735 37.3959 89.7473 37.7488 91.0736 39.5126C91.6962 40.3404 91.5005 41.0161 91.1755 41.8931L91.0759 42.4693C91.8232 43.939 92.5305 51.3074 92.4755 53.1812C92.4561 53.6418 92.4572 54.0612 92.3622 54.5123L92.2581 54.5338C92.0029 53.6244 91.7134 52.0994 91.4902 51.1393C90.9809 48.8741 90.3961 46.6266 89.7358 44.4008C89.0881 45.2183 88.0592 46.6488 87.2971 47.2598C86.7924 47.1174 86.2717 47.304 85.799 47.494C85.3939 47.5801 83.7471 47.9012 83.4495 48.0098L82.6038 48.1757L81.7867 48.444C81.5578 48.2055 81.3862 48.0706 81.2752 47.7589L81.4468 47.6494C81.3782 46.6965 79.087 45.6112 78.2001 45.5052C77.66 45.3886 77.1805 45.3639 76.6437 45.4793C75.4158 45.64 74.5277 46.1098 73.4668 46.7221C73.579 46.7536 74.3938 46.9751 74.4556 47.0032C74.7875 47.1977 74.855 47.2159 75.1285 47.4961C75.243 47.9902 75.2361 47.7396 75.0816 48.275L74.9797 48.3517C74.0516 48.0831 71.7308 47.3123 71.0891 46.6079C70.5478 46.5226 70.0081 46.4277 69.4702 46.323C68.4258 46.1075 66.8483 45.6301 65.9502 46.2014L65.8257 46.2328C65.4317 46.8826 64.7784 47.17 64.2129 47.6604C60.495 50.884 59.8811 52.7613 62.0743 57.3556C62.3702 58.1202 62.8945 59.0611 63.3508 59.747C63.7739 60.5977 65.3204 62.3757 65.355 63.0589C65.0896 63.2626 65.1905 63.1924 64.8322 63.2725C63.5468 63.4296 59.0625 63.9363 58.2216 64.6295C57.8719 65.7872 59.7345 69.6049 60.28 70.7175C63.2258 76.7264 70.4666 81.7604 77.3338 81.6572C78.1772 81.8132 79.8858 81.6286 80.8025 81.5517C84.4212 81.3442 87.8349 80.8912 90.6742 83.5573C91.7397 84.5561 93.1782 85.9448 93.3808 87.4206L93.4311 87.5124C94.5515 87.0136 95.213 86.4196 95.6765 85.1765C98.2457 78.2871 101.084 70.416 101.982 63.1218C102.162 61.6667 101.543 59.6368 101.077 58.3818C100.28 58.0956 99.3649 57.9596 98.5261 57.8071C98.0854 55.94 97.8634 53.7043 97.7799 51.7876C97.4045 49.6807 97.1436 45.4087 97.4721 43.2548C97.5922 42.4668 98.7252 41.6573 99.5881 42.1894C102.498 43.9828 104.535 46.6096 105.803 49.7538C106.236 45.409 105.306 44.0231 104.424 39.9245C102.386 35.8039 98.6497 34.7554 96.9513 31.2252C99.7105 34.2369 100.544 34.7093 103.991 36.9306C103.52 33.7357 101.332 32.6782 99.5114 30.1882C98.1404 28.314 97.5726 27.5627 96.8516 25.3716L96.6954 24.8236C96.3829 23.5711 96.354 23.1135 96.251 22.1814C95.11 24.7036 94.5652 25.5012 92.4332 27.3206C91.9045 28.5362 89.3879 30.1529 88.1611 30.6444C85.8986 31.5521 83.4679 31.4159 81.0772 31.6322C79.3983 31.783 77.7401 32.1121 76.1299 32.614C74.6845 33.0619 73.6797 33.5474 72.4037 34.3501C71.7685 34.7499 71.1624 35.2097 70.3922 35.1614ZM93.6715 57.4235C94.7026 57.483 95.4499 57.6119 96.4512 57.9176C96.9502 58.061 98.5066 58.4373 98.6382 58.795C99.2058 60.3404 96.576 64.2997 95.4476 64.923C95.3881 65.9467 95.3961 66.632 95.0001 67.5882C95.2519 70.5673 95.2267 71.8447 94.4165 74.7079C93.9038 73.0728 93.5467 71.0258 91.9617 70.3198C89.2941 69.1309 87.8796 67.9294 84.8846 68.6518C83.6224 69.0574 82.3566 69.4529 81.0875 69.8384C81.5326 68.7537 81.9584 68.1059 82.8236 67.3135C84.8045 65.52 87.4081 64.5749 90.0757 64.6803C89.5424 63.7788 88.4529 63.4843 87.6255 62.5331L86.0542 61.8655C84.7359 60.1169 84.3307 57.4777 86.6917 56.4642C86.3323 57.1868 85.9123 57.8258 86.0062 58.6203L86.1904 58.9072C86.3632 58.9232 91.5051 57.6798 91.9754 57.5109C92.5568 57.4359 92.8249 57.4235 93.4922 57.4235H93.6715ZM101.017 55.3935C100.537 54.8178 99.532 53.3277 98.7675 54.2583C98.4047 55.847 99.7929 56.8683 101.091 57.3808C101.091 56.6786 101.061 56.0919 101.017 55.3935ZM45.1912 47.0886C43.15 46.1826 41.3202 45.7911 39.1441 46.6469C37.3941 47.35 36.0019 48.7319 35.2838 50.4787C35.0721 50.9715 34.9169 51.487 34.8211 52.015C35.5011 51.6277 36.3066 50.9463 37.1412 50.4656C39.7104 48.9858 42.5564 48.834 45.3878 49.565C47.0827 50.0023 47.8766 50.4709 49.6718 50.5553C48.9129 49.799 47.2355 48.5736 46.342 47.8844C45.9799 47.6191 45.5644 47.3461 45.1912 47.0886ZM50.5536 72.8133C51.5418 72.2307 50.9641 70.5357 50.4271 69.7979C49.3488 68.3161 47.4228 68.3674 45.8058 68.1152C42.2667 67.5197 40.4429 64.7449 39.6567 61.4703C39.6183 61.3102 39.3857 61.1503 39.2575 61.0608C38.6225 63.6388 38.911 66.3906 40.293 68.6835C41.5825 70.7778 43.6412 72.2807 46.0258 72.8685C47.6686 73.2718 48.9241 73.1732 50.5536 72.8133ZM31.5023 71.0961C30.7382 67.1525 32.0107 64.4877 34.8391 61.7863C35.663 60.9992 36.0082 60.3556 37.0605 59.7572L38.0122 58.1344C33.734 59.1138 30.0843 60.7799 29.4987 65.6454L29.4547 66.0004L29.4198 66.1765C29.6114 68.1328 29.9791 69.6701 31.5023 71.0961Z" fill="#011936"/>
<path d="M86.5685 61.8821C85.2262 59.9439 84.8138 57.0187 87.2174 55.8953C86.8516 56.6963 86.424 57.4045 86.5195 58.2851L86.7071 58.6032C86.883 58.6208 92.1179 57.2427 92.5967 57.0554C93.1886 56.9723 93.6298 56.9986 94.2205 56.9586H94.3234C95.3732 57.0246 96.134 57.1674 97.1535 57.5063C97.6615 57.6651 99.246 58.0823 99.38 58.4787C99.9579 60.1917 97.2805 64.5801 96.1317 65.271C96.0711 66.4056 96.0792 67.1652 95.6761 68.2251C94.7056 66.6806 94.2325 66.6966 92.6247 66.7758C91.9582 66.1941 91.2941 65.6283 90.6626 65.0019C90.1197 64.0028 89.0105 63.6764 88.1681 62.6221L86.5685 61.8821Z" fill="#011936"/>
<path d="M82.1989 69.6158C82.6415 68.4609 83.0649 67.7711 83.9251 66.9273C85.8949 65.0176 88.4837 64.0112 91.1362 64.1235C91.7529 64.7252 92.4015 65.2688 93.0524 65.8275C94.6228 65.7514 95.0848 65.7361 96.0327 67.2198C96.283 70.3919 96.258 71.7521 95.4523 74.8008C94.9425 73.0598 94.5875 70.8802 93.0115 70.1284C90.359 68.8625 88.9525 67.5831 85.9745 68.3523C84.7194 68.7842 83.4608 69.2053 82.1989 69.6158Z" fill="#011936"/>
<path d="M85.3586 72.0465C86.4048 71.5565 87.1435 71.3832 88.327 71.6138C93.1163 72.5476 94.3257 73.2505 93.4372 78.0888C92.6895 77.3239 91.2425 76.0577 90.1682 75.8405C89.3349 75.3711 87.8991 75.0898 86.9397 75.0359C86.3485 74.9159 85.2246 74.8911 84.6154 74.9231C84.0512 74.8644 83.3992 75.0246 83.0209 74.7113L83.1583 74.3815C83.9229 73.2502 84.2629 72.8752 85.3586 72.0465Z" fill="#011936"/>
<path d="M84.8311 156.358C85.6382 155.53 88.5539 150.253 89.3758 148.97C90.7499 146.827 92.2516 144.079 93.7521 141.913C97.2608 136.845 102.965 130.826 108.084 127.467C113.912 123.642 122.054 119.487 128.992 118.565C132.008 118.163 135.141 118.399 138.094 119.03C137.806 119.746 136.767 121.496 136.331 122.265C134.548 125.568 132.716 127.938 130.333 130.844C120.967 142.34 108.436 150.75 94.335 155.004C92.4246 155.573 90.5109 156.03 88.5834 156.533C87.1239 156.818 86.1665 157.084 84.6649 156.975L84.8311 156.358Z" fill="#011936"/>
<path d="M107.681 15.8997C107.751 15.8202 107.898 15.6939 107.981 15.6179L108.627 15.6745C111.033 16.7398 114.165 18.6845 116.349 20.1405C128.903 28.5095 138.703 41.883 144.096 55.8332C145.312 58.9982 146.307 62.242 147.075 65.5418L147.375 67.0017C150.151 80.0495 148.688 94.3667 144.085 106.859C142.303 106.251 140.29 105.61 138.554 104.93L139.187 103.017L139.373 102.357L139.867 100.829C142.883 90.203 143.774 80.8982 141.988 69.9416L141.855 69.6172C141.923 69.1368 141.495 67.3549 141.362 66.7581C139.957 60.4859 137.733 55.0656 134.793 49.3758L134.696 49.2921C134.561 48.9089 134.155 48.2261 133.943 47.8448C130.656 41.9927 126.569 36.618 121.799 31.8727C120.025 30.1191 118.138 28.61 116.374 26.9299C115.73 26.3176 114.995 24.1089 114.179 23.0726C112.194 20.5518 109.884 18.2334 107.681 15.8997Z" fill="#011936"/>
<path d="M73.5451 2.47674L73.8646 2.46606L73.979 2.62307C72.6562 12.3123 64.0909 19.4615 55.965 24.488C53.9886 25.7105 49.6808 28.1272 48.1231 29.426L47.9495 29.572C47.7958 29.6024 47.8869 29.5945 47.6754 29.5694C47.7357 28.7066 50.1218 23.7237 50.6537 22.7133C55.4624 13.5801 63.1774 5.74966 73.5451 2.47674Z" fill="#011936"/>
<path d="M89.9291 0C87.7734 7.5536 82.1503 10.9545 75.0111 12.9541C74.0655 13.2192 73.1727 13.616 72.1869 13.8613C71.2596 14.2209 70.6496 14.3948 69.682 14.6514C70.3074 14.1367 71.0229 13.6146 71.6732 13.1211L72.4008 12.4775C73.2059 11.7605 74.1773 10.8717 74.6986 10.2627C75.8487 8.9203 76.8381 7.3475 78.017 5.98145C80.8436 2.70634 85.6006 0.341272 89.9291 0Z" fill="#011936"/>
</g>
<defs>
<clipPath id="clip0_1374_1572">
<rect width="663" height="157" fill="white"/>
</clipPath>
</defs>
</svg>
