<svg width="100" height="100" viewBox="0 0 100 100" fill="none" xmlns="http://www.w3.org/2000/svg">
<path d="M56.0241 13.8018C59.172 12.0615 63.2249 11.0369 66.7812 11.9453C65.3243 13.776 64.1403 14.5563 61.9599 15.4247C63.4506 16.2298 64.8464 16.9704 65.9892 18.2659C66.3226 18.6441 66.7461 19.4189 67.068 19.7106C68.9193 21.3907 70.381 22.9152 71.1209 25.4123C71.473 26.5884 71.594 27.8215 71.4791 29.0438C71.3859 29.7187 71.2752 30.101 71.0205 30.7357C70.5958 31.5142 70.2721 31.9758 69.6181 32.5917C70.6708 33.7361 71.3496 34.8721 71.2843 36.4861C71.2419 37.784 70.6714 39.008 69.7052 39.8733C68.9344 40.5701 68.1298 40.9392 67.1956 41.3498C67.8024 43.0221 68.0463 43.8387 67.4485 45.6211C67.0093 46.9311 65.1313 47.5876 64.8694 48.1984C63.8076 50.676 63.6823 54.0108 61.7953 56.1071C61.3301 56.6242 60.7184 56.8776 60.2332 57.3123C60.3028 58.161 60.8757 63.3915 61.1358 63.7819C61.6525 64.0705 65.2584 64.9277 66.0987 65.149L66.9155 65.3654C67.6137 65.5564 68.4026 65.8007 69.1093 65.908C69.6683 65.5388 70.1795 65.1581 70.7482 64.8149C72.7956 63.5794 74.8907 63.3721 77.1988 63.9044C78.2842 64.1548 80.8331 64.8131 81.7939 65.3351C82.1061 65.4442 82.4176 65.5545 82.7286 65.6667C83.2634 65.8892 85.4294 66.7876 85.7434 67.1471C85.511 67.3483 83.1642 66.6815 82.725 66.5881C81.4375 66.3172 80.1458 66.0668 78.8505 65.837C78.4809 65.7703 76.8098 65.4345 76.474 65.5103C71.8723 66.5536 67.9053 70.157 65.2765 73.9677C64.7683 74.7049 64.5874 75.2505 64.1137 75.967C63.2625 76.9491 62.3404 77.7275 61.4734 78.7569C58.976 81.6674 57.1543 85.098 56.1409 88.7996C55.9285 89.5659 55.6636 90.6134 55.5643 91.3936L55.476 91.718C55.1348 91.9914 54.5092 91.972 54.0706 91.9999C55.0023 86.9682 57.2021 82.2578 60.4613 78.3174C60.9429 77.7548 61.4486 77.214 61.9774 76.6957C62.8898 75.8161 63.499 75.4742 63.859 74.1993C64.6092 71.5422 66.1248 69.6144 67.6954 67.4344C67.12 67.2701 66.5404 67.121 65.9572 66.9864L65.7593 66.9131C64.2123 66.5111 62.6581 66.1341 61.0977 65.7837C60.7801 66.6766 60.4534 67.566 60.1176 68.4529C60.0426 68.0649 59.7256 66.3578 59.5646 66.1044C58.9463 65.3539 58.8997 64.8313 58.1072 64.1105C53.5968 67.241 49.6715 71.0154 46.8248 75.7373C46.6269 76.0652 46.3689 76.4654 46.1451 76.7739C46.123 76.1325 46.0991 75.5221 46.1124 74.8795C46.0344 73.2166 46.1649 71.2724 46.115 69.5853C46.0955 68.9257 46.1575 68.0776 46.0841 67.435L46.0716 67.3314C46.0194 66.8785 44.5545 64.7992 44.1832 64.2257C43.2169 62.7332 42.2805 61.2218 41.3745 59.6917L40.9828 59.0219C40.2292 57.7379 39.5076 56.4351 38.8187 55.1153C38.5909 55.7464 38.7321 56.5448 38.7787 57.2244L39.0204 60.6193C39.366 65.1362 39.7994 69.6459 40.3206 74.1459L40.864 78.4204C40.9424 79.0315 41.1384 80.2991 41.1224 80.8787C40.6725 80.564 40.4288 80.4046 40.0615 79.9869C39.3572 79.5541 38.7085 79.2704 37.9591 78.9387L37.025 78.652C32.3013 77.4723 27.7489 78.8363 23.818 81.5194C17.5553 75.1359 13.0557 67.6636 11.5174 58.78L11.3862 57.8943C10.5326 52.0388 11.156 46.7601 12.6468 41.0889L12.9046 40.2194C13.515 37.96 14.639 35.2939 15.692 33.2157C20.5639 23.6013 29.1379 17.3185 39.2748 14.0573C37.8601 15.4809 37.5855 15.924 35.6668 16.7198C34.0765 17.3795 32.1342 18.8487 30.9768 20.1147C30.5084 20.6272 30.0997 21.3945 29.526 21.8545C28.5027 22.7417 27.4222 23.5383 26.4357 24.4669C22.6455 27.9359 19.9782 31.5019 17.6967 36.0804L17.5197 36.4724L17.4496 36.6136L17.3028 36.9552C14.7744 42.8043 13.8316 48.5668 14.2202 54.922L14.2773 55.6373C14.7634 59.8384 15.6434 63.206 17.3866 67.081C17.5504 67.4441 17.7168 67.8054 17.8857 68.1661C19.2207 70.8111 20.7275 73.3639 22.7309 75.5615C23.7453 75.0468 24.7635 74.5394 25.7853 74.0399L26.3603 73.7531L26.4848 73.6919C26.9973 73.4215 27.5151 73.1614 28.0378 72.9117C28.8085 72.3085 34.147 69.7314 34.4222 68.819C34.4971 68.5705 34.0911 64.8265 34.0479 64.2493C33.9675 63.0266 33.914 61.8014 33.8877 60.5762C33.8485 58.7103 34.051 59.0679 32.3923 58.2732C31.3546 57.7761 30.427 56.8055 29.8046 55.8355C29.647 55.5718 29.5039 55.2754 29.3632 55.0002C28.5761 53.0705 28.5823 51.4713 29.197 49.5022C29.0796 49.4461 28.9625 49.3892 28.8458 49.3315C26.9369 48.3878 25.9157 47.1473 25.2388 45.1398C25.1555 44.8429 25.0757 44.4525 25.0037 44.1455L24.9353 43.7271C24.6552 42.0926 24.9341 39.1165 25.8435 37.7674C27.166 35.8056 26.7788 36.7706 25.8676 34.572C25.0054 32.535 25.0027 30.235 25.86 28.1959C25.9843 27.9193 26.1431 27.6206 26.2806 27.3474C26.4586 27.5387 26.6329 27.7454 26.8047 27.9434C28.0259 29.483 28.496 31.1598 28.9924 33.0085C29.1874 30.6438 29.4147 28.1839 30.1892 25.9304C31.0389 23.4582 32.7368 20.7809 35.1471 19.5961C35.708 23.8029 33.2996 27.0979 31.3646 30.4656C32.1219 29.9592 32.6665 29.3069 33.2574 28.6161C34.8042 26.8077 36.288 25.0867 38.6439 24.353C40.2409 23.8556 42.5691 24.0739 44.0318 24.8703L44.2284 24.937L44.3624 24.9954L45.2339 25.427L43.6505 25.9909L43.3076 26.1008L42.6963 26.2509C39.9129 27.0704 37.33 26.942 34.9398 28.9173C33.4701 30.1319 32.848 31.0813 31.8498 32.6643C32.204 32.4638 32.6844 32.2108 33.0184 31.997C33.8151 30.7887 37.5921 30.6624 38.8927 30.7169C39.182 30.7291 40.2076 30.7642 40.4391 30.9355C40.3104 31.069 40.2967 31.0319 40.0756 31.0756C39.2169 31.4452 38.3241 31.8162 37.4825 32.2168C38.8146 32.5829 41.278 32.1979 42.5843 31.7534C43.3563 30.9981 43.5226 30.4732 43.7531 29.4489C42.6675 29.4511 41.4382 29.4004 40.3779 29.4524L39.7777 29.4247C39.3144 29.4885 39.0125 29.4908 38.542 29.4959L38.0634 29.4702L38.0994 29.418C38.6572 29.4497 42.0966 27.9571 42.9484 27.808C43.4098 27.7273 44.402 27.1347 44.9785 26.9677C45.9472 26.6812 46.6008 25.084 46.8819 24.2057C46.4075 24.012 45.9559 23.8465 45.4734 23.6734L45.2241 23.5969C44.2547 23.0951 41.815 22.7531 40.6915 22.6338C41.6209 22.0867 42.6695 21.3042 43.5152 20.6211C47.82 17.144 53.1056 14.8167 58.201 18.1299C56.372 19.2044 54.0887 19.808 52.0166 19.2386C49.732 18.6107 47.202 18.3566 45.4241 20.3184C45.8843 20.4617 46.8465 20.264 47.3655 20.2368C49.1966 20.1409 50.7594 20.8066 52.3457 21.6324C54.2648 22.631 57.2148 21.5066 59.0032 20.5712C59.5949 20.2548 60.1648 19.8989 60.7087 19.5058C60.5218 20.0139 60.4352 20.3553 60.0474 20.7401C59.6318 21.4157 59.6366 21.7786 58.9233 22.2854C59.0462 22.3601 59.1877 22.3379 59.3257 22.2856C60.7801 21.7355 61.6967 20.5504 62.0216 19.0735C62.2932 19.6333 62.8414 20.8689 63.1354 21.3145L63.2431 21.5402L63.3453 21.6887C63.5486 21.9301 63.5607 21.9544 63.8245 22.1149L63.9032 21.786L63.9969 21.7666C67.1006 23.8399 69.1758 25.8048 69.4269 29.7224C69.8722 29.1333 70.0761 28.561 70.0809 27.8348C70.0972 25.0676 68.6017 23.37 66.7975 21.5034C66.4109 21.1034 65.933 20.3013 65.4998 19.847L65.4084 19.6404C65.3721 19.6044 65.2796 19.4501 65.2548 19.4109L65.1083 19.2489C63.4724 16.5595 57.5972 15.6529 54.658 15.4444C54.6054 15.2022 54.6665 15.0751 54.7288 14.8283L54.6005 14.6515C55.0967 14.3349 55.5075 14.0855 56.0241 13.8018ZM48.2137 27.5885C47.4268 28.3859 46.6463 29.3815 46.2694 30.4502C46.758 30.2652 47.0997 29.9244 47.4918 29.6974C48.6131 29.0483 51.7631 28.014 53.0045 28.3424C53.3857 28.4401 55.1511 28.4855 55.7041 28.5396L56.0175 28.5897C57.0853 28.7698 58.446 28.9563 59.1472 29.8888C59.4763 30.3265 59.3729 30.6837 59.201 31.1473L59.1484 31.4519C59.5435 32.2289 59.9174 36.1243 59.8883 37.1149C59.878 37.3584 59.8786 37.5801 59.8284 37.8186L59.7734 37.8299C59.6385 37.3492 59.4854 36.543 59.3674 36.0354C59.0982 34.8379 58.789 33.6497 58.4399 32.473C58.0975 32.9052 57.5536 33.6614 57.1507 33.9845C56.8839 33.9092 56.6086 34.0078 56.3587 34.1083C56.1445 34.1538 55.2739 34.3235 55.1166 34.381L54.6695 34.4687L54.2375 34.6105C54.1165 34.4844 54.0258 34.4131 53.9671 34.2483L54.0579 34.1904C54.0216 33.6866 52.8103 33.1129 52.3414 33.0569C52.0559 32.9952 51.8024 32.9822 51.5186 33.0432C50.8695 33.1281 50.4 33.3765 49.8391 33.7002C49.8984 33.7168 50.3292 33.834 50.3619 33.8488C50.5373 33.9516 50.573 33.9613 50.7176 34.1094C50.7781 34.3706 50.7745 34.2381 50.6928 34.5212L50.639 34.5617C50.1483 34.4197 48.9213 34.0122 48.5821 33.6398C48.2959 33.5947 48.0106 33.5445 47.7263 33.4892C47.1741 33.3753 46.3402 33.1229 45.8654 33.4249L45.7996 33.4415C45.5913 33.785 45.2459 33.937 44.9469 34.1962C42.9814 35.9005 42.6569 36.8929 43.8163 39.3217C43.9728 39.726 44.2499 40.2234 44.4912 40.586C44.7148 41.0357 45.5324 41.9757 45.5507 42.3369C45.4104 42.4445 45.4638 42.4074 45.2743 42.4498C44.5948 42.5329 42.2241 42.8007 41.7796 43.1671C41.5947 43.7792 42.5794 45.7975 42.8677 46.3857C44.4251 49.5623 48.253 52.2237 51.8835 52.1691C52.3293 52.2515 53.2326 52.1539 53.7172 52.1133C55.6303 52.0036 57.435 51.7641 58.936 53.1736C59.4993 53.7016 60.2598 54.4358 60.3669 55.216L60.3935 55.2645C60.9858 55.0008 61.3355 54.6867 61.5805 54.0296C62.9388 50.3874 64.4392 46.2263 64.9141 42.3701C65.0091 41.6008 64.6818 40.5277 64.4356 39.8643C64.0145 39.7129 63.5305 39.641 63.087 39.5604C62.8541 38.5734 62.7367 37.3914 62.6925 36.3782C62.4941 35.2643 62.3562 33.0059 62.5298 31.8672C62.5933 31.4506 63.1923 31.0227 63.6485 31.3039C65.187 32.252 66.2639 33.6408 66.9343 35.303C67.1629 33.006 66.6711 32.2734 66.2052 30.1066C65.1277 27.9282 63.1523 27.3738 62.2545 25.5076C63.7132 27.0998 64.1536 27.3495 65.9759 28.5238C65.7273 26.8348 64.5705 26.2757 63.6079 24.9594C62.8831 23.9686 62.5829 23.5713 62.2018 22.413L62.1192 22.1233C61.954 21.4612 61.9387 21.2192 61.8842 20.7265C61.2811 22.0599 60.9931 22.4815 59.8659 23.4434C59.5864 24.086 58.256 24.9407 57.6074 25.2005C56.4113 25.6804 55.1263 25.6084 53.8624 25.7227C52.9749 25.8025 52.0982 25.9764 51.247 26.2418C50.4829 26.4786 49.9517 26.7353 49.2771 27.1596C48.9413 27.3709 48.6209 27.614 48.2137 27.5885ZM60.5206 39.3576C61.0657 39.3891 61.4607 39.4572 61.9901 39.6189C62.2539 39.6946 63.0767 39.8936 63.1463 40.0827C63.4464 40.8997 62.0561 42.9928 61.4595 43.3223C61.4281 43.8635 61.4323 44.2258 61.223 44.7313C61.3561 46.3062 61.3428 46.9816 60.9144 48.4953C60.6434 47.6308 60.4546 46.5487 59.6167 46.1754C58.2064 45.5469 57.4586 44.9117 55.8753 45.2936C55.208 45.508 54.5388 45.7171 53.8679 45.9209C54.1032 45.3475 54.3283 45.005 54.7857 44.5861C55.833 43.6379 57.2094 43.1383 58.6196 43.194C58.3377 42.7174 57.7617 42.5618 57.3243 42.0589L56.4936 41.706C55.7967 40.7815 55.5825 39.3863 56.8306 38.8505C56.6406 39.2325 56.4186 39.5703 56.4682 39.9903L56.5656 40.142C56.657 40.1505 59.3753 39.4931 59.6239 39.4038C59.9313 39.3642 60.073 39.3576 60.4258 39.3576H60.5206ZM64.4041 38.2844C64.15 37.9801 63.6188 37.1923 63.2147 37.6843C63.0229 38.5242 63.7568 39.0641 64.4428 39.3351C64.4428 38.9638 64.4271 38.6537 64.4041 38.2844ZM34.8909 33.894C33.8118 33.415 32.8444 33.208 31.694 33.6605C30.7688 34.0321 30.0329 34.7627 29.6532 35.6862C29.5413 35.9467 29.4592 36.2192 29.4086 36.4984C29.7681 36.2936 30.1939 35.9334 30.6351 35.6792C31.9934 34.8969 33.498 34.8167 34.9948 35.2031C35.8908 35.4343 36.3105 35.682 37.2596 35.7267C36.8584 35.3268 35.9716 34.679 35.4993 34.3147C35.3079 34.1744 35.0882 34.0301 34.8909 33.894ZM37.7258 47.4936C38.2482 47.1856 37.9428 46.2896 37.6589 45.8995C37.0888 45.1162 36.0707 45.1433 35.2158 45.0099C33.3448 44.6951 32.3806 43.2282 31.965 41.497C31.9447 41.4124 31.8217 41.3279 31.754 41.2805C31.4183 42.6434 31.5708 44.0982 32.3014 45.3104C32.9831 46.4175 34.0715 47.2121 35.3321 47.5228C36.2006 47.736 36.8643 47.6839 37.7258 47.4936ZM27.6541 46.5858C27.2501 44.501 27.9228 43.0922 29.4181 41.6641C29.8537 41.248 30.0362 40.9077 30.5925 40.5914L31.0956 39.7334C28.8339 40.2512 26.9044 41.132 26.5948 43.7043L26.5716 43.8919L26.5531 43.985C26.6544 45.0192 26.8488 45.8319 27.6541 46.5858Z" fill="white"/>
<path d="M56.7655 41.7148C56.0559 40.6901 55.8379 39.1437 57.1086 38.5497C56.9151 38.9732 56.6891 39.3476 56.7396 39.8132L56.8388 39.9813C56.9318 39.9906 59.6992 39.2621 59.9524 39.1631C60.2653 39.1191 60.4985 39.1331 60.8108 39.1119H60.8652C61.4202 39.1468 61.8224 39.2223 62.3614 39.4014C62.6299 39.4854 63.4676 39.7059 63.5384 39.9155C63.844 40.8211 62.4285 43.1411 61.8212 43.5063C61.7891 44.1062 61.7935 44.5077 61.5803 45.0681C61.0673 44.2515 60.8172 44.26 59.9672 44.3019C59.6148 43.9944 59.2638 43.6952 58.9299 43.3641C58.6429 42.8359 58.0565 42.6633 57.6112 42.106L56.7655 41.7148Z" fill="white"/>
<path d="M54.4554 45.8032C54.6895 45.1926 54.9132 44.828 55.368 44.3819C56.4094 43.3723 57.778 42.8403 59.1802 42.8996C59.5063 43.2177 59.8492 43.5051 60.1933 43.8005C61.0235 43.7603 61.2677 43.7521 61.7688 44.5366C61.9012 46.2135 61.888 46.9326 61.462 48.5443C61.1925 47.6239 61.0048 46.4716 60.1716 46.0742C58.7694 45.4049 58.0258 44.7286 56.4515 45.1353C55.7879 45.3636 55.1226 45.5862 54.4554 45.8032Z" fill="white"/>
<path d="M56.1259 47.0883C56.6789 46.8292 57.0695 46.7376 57.6952 46.8595C60.2271 47.3532 60.8664 47.7248 60.3967 50.2826C60.0014 49.8782 59.2365 49.2089 58.6685 49.0941C58.228 48.8459 57.4689 48.6972 56.9617 48.6687C56.6492 48.6052 56.0551 48.5921 55.733 48.609C55.4347 48.578 55.09 48.6627 54.89 48.4971L54.9626 48.3227C55.3669 47.7247 55.5466 47.5264 56.1259 47.0883Z" fill="white"/>
<path d="M55.847 91.6606C56.2737 91.2228 57.8151 88.4329 58.2496 87.7548C58.9761 86.6217 59.7699 85.1692 60.5632 84.0239C62.4181 81.345 65.4334 78.163 68.14 76.3872C71.221 74.3651 75.5255 72.1685 79.1932 71.6807C80.7876 71.4685 82.4439 71.5929 84.0051 71.9264C83.8529 72.3051 83.3034 73.2302 83.0728 73.6369C82.1303 75.3828 81.1619 76.636 79.9022 78.1721C74.9507 84.2495 68.326 88.6957 60.8713 90.9447C59.8614 91.2453 58.8497 91.4874 57.8307 91.7533C57.0591 91.9039 56.553 92.0442 55.7591 91.9869L55.847 91.6606Z" fill="white"/>
<path d="M67.9266 17.4055C67.9638 17.3635 68.0417 17.2968 68.0855 17.2566L68.427 17.2865C69.6992 17.8497 71.3549 18.8778 72.5096 19.6475C79.1463 24.0719 84.327 31.1419 87.1782 38.5169C87.821 40.1901 88.3469 41.905 88.7529 43.6495L88.9118 44.4213C90.3794 51.3191 89.6057 58.8881 87.1721 65.4921C86.2304 65.1707 85.1658 64.8318 84.2485 64.4724L84.5827 63.4611L84.6813 63.1125L84.9424 62.3044C86.5366 56.6869 87.0078 51.7678 86.0637 45.9755L85.9937 45.804C86.0296 45.55 85.8031 44.608 85.7325 44.2925C84.9899 40.9766 83.8145 38.1111 82.2599 35.1031L82.2087 35.0588C82.1375 34.8563 81.9226 34.4953 81.8106 34.2937C80.0728 31.2 77.9125 28.3585 75.3906 25.8499C74.4526 24.9228 73.4549 24.125 72.5224 23.2368C72.1821 22.9131 71.7938 21.7454 71.3622 21.1976C70.3128 19.8649 69.0917 18.6393 67.9266 17.4055Z" fill="white"/>
<path d="M49.8805 10.3094L50.0494 10.3037L50.1099 10.3867C49.4106 15.509 44.8824 19.2886 40.5866 21.9459C39.5417 22.5922 37.2643 23.8698 36.4409 24.5564L36.3491 24.6336C36.2679 24.6497 36.316 24.6455 36.2042 24.6322C36.2361 24.1761 37.4975 21.5418 37.7787 21.0077C40.3209 16.1793 44.3995 12.0396 49.8805 10.3094Z" fill="white"/>
<path d="M49.1625 16.3281C48.6722 16.5182 48.3498 16.6104 47.8383 16.7461C48.1689 16.474 48.5472 16.1974 48.891 15.9365L49.7181 15.1963C50.0169 14.9208 50.3068 14.6405 50.4906 14.4258C51.0986 13.7161 51.6213 12.8843 52.2445 12.1621C53.7389 10.4306 56.254 9.18036 58.5424 9C57.4027 12.9933 54.4299 14.7915 50.6556 15.8486C50.1557 15.9888 49.6837 16.1984 49.1625 16.3281Z" fill="white"/>
</svg>
