<svg width="100" height="100" viewBox="0 0 100 100" fill="none" xmlns="http://www.w3.org/2000/svg">
<path d="M48.5361 32.673C48.6419 32.652 48.6961 32.6577 48.8041 32.6557L48.8485 32.7304C48.7839 33.002 48.4094 33.4965 48.2461 33.8063C48.0411 34.2023 47.8585 34.6094 47.699 35.0258C46.7252 37.5724 46.9941 40.408 44.6457 42.2476C43.9376 42.8023 43.0755 42.761 42.9751 43.8169C42.8596 45.0333 44.3961 45.6751 44.522 46.6133C44.2943 47.3187 43.3186 46.4529 42.7228 46.4816C41.602 46.5098 40.7818 46.2415 40.1758 45.2471C39.8205 44.664 39.278 43.3652 38.4201 44.1153C38.1444 44.356 37.9842 44.7026 37.9795 45.0686C37.9704 46.1279 38.8414 47.4085 39.5819 48.1334C40.6053 49.1352 42.2874 49.9246 43.7378 49.9124C44.5138 49.9058 44.9233 49.5954 45.42 49.085C46.3134 50.4656 46.6587 51.4707 48.0493 52.6468C48.7482 53.2406 49.5552 53.6938 50.4257 53.9819C53.7132 55.0503 59.5586 54.3113 63.0851 54.0498C64.3219 53.9605 65.5591 53.8848 66.7975 53.8221C67.5112 53.7921 69.0056 53.949 69.4234 53.289C70.2681 51.9241 69.2424 50.0295 67.8857 49.4203C67.1977 49.0759 65.9144 49.0746 66.6182 47.9988C67.1955 47.1164 68.6499 47.465 68.9338 47.091C68.9552 46.5099 68.2453 46.0844 67.747 45.9683C66.2559 45.6207 65.1743 46.8173 63.806 46.9545C63.6799 46.9671 63.5928 46.8361 63.5325 46.7547C63.3554 45.9171 64.2698 45.9007 64.6585 45.6466C66.1369 44.6806 66.7728 43.4583 68.6926 44.2384C70.335 43.3939 69.6174 45.4304 69.2726 46.1601C69.4118 46.3653 69.5653 46.5743 69.6772 46.7955C70.0373 47.5066 69.7671 48.1062 69.5555 48.7963C69.2441 49.8137 70.2254 50.353 70.6425 51.1802C71.0301 51.9489 71.08 52.9804 70.8158 53.7976C70.2456 55.5645 68.3845 56.1999 66.8167 56.8062C65.6737 57.248 64.4671 57.6405 63.379 58.204C62.7069 58.5522 62.1477 59.0258 61.9279 59.779C61.8342 60.1002 61.8029 60.4407 61.8128 60.7745C61.8391 61.6467 62.4372 66.2406 62.8171 66.8458C63.0073 67.1495 63.4234 67.3189 63.7501 67.4186C64.4441 67.6291 65.211 67.6823 65.9292 67.7794C67.5392 67.997 69.1569 68.1461 70.7708 68.3314C71.6085 68.4273 72.4554 68.5019 73.2815 68.6745C69.9156 68.9355 65.6123 70.3246 62.4569 71.6096C59.842 72.6955 57.2803 73.9043 54.78 75.232C54.3864 75.4387 53.0011 76.2446 52.6481 76.2106L52.6103 76.1196C52.7161 75.8065 52.9616 75.5785 53.1826 75.3439C54.5125 73.935 55.8736 72.2115 56.6921 70.4639C57.4645 68.8143 58.4206 66.2159 57.5533 64.4513C57.0704 63.4678 55.4274 62.5397 54.4917 62.0091C49.8008 59.4167 46.7361 57.2184 44.8944 51.9402C43.0445 53.3437 41.2351 52.6922 39.4333 51.6026C39.1809 52.6565 39.0478 54.3952 38.9617 55.4987C38.9507 55.8589 38.9373 56.2201 38.9176 56.5792C38.7754 59.1793 38.948 61.7881 39.0911 64.3844C39.2531 67.2443 39.4581 70.1015 39.7058 72.9554C39.9482 75.561 40.1351 78.1967 40.3184 80.8077C40.358 81.3713 40.2379 81.5401 39.6908 81.6328C38.6097 81.8164 37.5174 81.9863 36.4458 82.2232C32.181 83.228 26.7622 84.7183 23.8827 88.1873C22.1253 87.8424 21.3462 87.6623 20.8334 87.1777C23.2289 82.6266 29.7062 79.8928 33.4879 76.4008C35.0354 74.9716 36.1366 73.5326 36.2116 71.3618C36.2395 70.5554 35.9629 64.0335 35.6764 63.4903C35.5845 63.316 33.2837 62.7464 32.8708 62.5693C32.0003 62.196 31.14 61.5985 30.496 60.9034C29.3733 59.6683 28.8429 58.0067 29.0429 56.3495C29.0676 56.1544 29.375 54.9061 29.2513 54.8091C28.7079 54.3837 28.1083 54.1025 27.5523 53.6652C26.2546 52.6451 25.6055 51.2163 25.4325 49.5924C25.1803 47.0252 25.9478 44.4619 27.5693 42.4557C29.2517 40.3967 31.6835 39.3096 34.2926 39.0462C33.8984 40.7721 32.4805 43.2142 31.3257 44.522C30.5083 45.4476 29.7276 46.1787 29.1742 47.3099C28.356 48.9822 28.8137 50.9875 30.5825 51.799C31.6813 52.3032 32.7677 51.9432 33.8427 51.5364C33.7739 52.8571 33.1086 53.6908 32.5765 54.8546C31.6472 56.8873 31.9016 59.1053 34.15 60.0613C33.5217 58.8076 33.556 57.339 34.3238 56.1861C35.1125 55.0021 36.0718 54.1058 36.0087 52.5282C35.9118 50.1054 34.1558 49.7262 34.4563 46.8729C33.8924 47.2993 33.3866 47.7975 32.9517 48.355C32.8236 48.5169 32.768 48.6497 32.6017 48.6939C32.5479 48.5941 32.5395 48.5957 32.5454 48.4753C32.6233 46.9136 33.1693 45.1132 33.9081 43.7599C35.1517 41.4817 37.0678 39.5026 39.7186 39.0742C41.1354 38.866 42.4978 38.9356 43.5689 37.8137C43.8874 37.4802 44.6407 36.318 44.0089 36.0009C43.1739 35.5821 41.4148 36.0879 40.5511 36.2737C41.7654 34.2891 43.9654 33.1508 46.2325 32.8976C47.0109 32.8107 47.7582 32.7982 48.5361 32.673Z" fill="#011936"/>
<path d="M75.3652 69.4029C77.8206 69.2454 80.2787 69.6843 82.381 70.6558C82.0154 70.9198 81.2473 71.2522 80.789 71.5233C79.4515 72.3149 78.2876 73.1787 77.171 74.1465C70.1996 80.187 66.4439 86.3104 55.4175 88.634C55.7103 88.3389 56.1872 87.6753 56.4695 87.3338C57.1674 86.4916 57.9025 85.6672 58.6733 84.8627C62.7507 80.6823 67.5195 76.9148 72.8644 73.6516C74.1822 72.8488 75.6821 71.961 77.109 71.2742C74.06 71.1648 71.4034 72.237 68.8099 73.3122C61.3293 76.7846 54.8469 81.3579 49.7476 86.7601C49.059 87.4896 47.614 89.014 47.1098 89.768C44 89.8322 42.3347 89.7949 39.2677 89.5069C40.4826 87.834 43.3055 85.1383 44.9518 83.7163C47.28 81.7011 49.8079 79.8223 52.5127 78.0968C58.2884 74.3993 67.5874 69.7933 75.3652 69.4029Z" fill="#011936"/>
<path d="M54.6084 19.2698C55.3967 19.3465 56.3007 19.5713 57.1115 19.6277C58.6727 19.7367 60.1145 19.5233 61.6281 20.0698C63.7627 20.8403 64.9693 22.8408 64.7862 25.0814C64.7292 25.7757 64.5269 26.2913 64.295 26.9366C65.1864 28.421 66.3255 29.9916 66.8852 31.641C67.0765 32.2031 66.9548 32.7938 66.8118 33.3525C67.1577 33.8749 67.6708 34.4453 68.083 34.9303C68.7979 35.7756 69.5237 36.6118 70.2599 37.4389C70.6985 37.9265 71.4506 38.5042 71.5591 39.1439C71.8694 40.9651 69.9233 41.3259 69.0435 42.4762C68.697 42.9296 69.1054 43.2941 68.9031 43.5673C68.0008 43.7404 67.8342 42.8605 67.4795 42.4575C66.9664 41.8747 65.3525 42.7284 64.8427 41.8089C64.7517 41.6453 64.716 41.7002 64.7478 41.502C64.8734 41.5022 65.2867 41.5124 65.3508 41.4484C66.3853 40.4158 67.3616 39.5564 68.9212 39.5291C69.3176 39.5222 70.0532 39.5095 70.2232 39.1002C70.2259 38.627 69.8367 38.3296 69.5319 37.9989C68.1598 36.5084 66.8331 34.9381 65.5926 33.3374C65.5054 33.1827 65.5339 32.7726 65.5581 32.5983C65.6808 31.7057 65.3623 31.2145 64.8849 30.4989C64.1103 29.3913 63.0013 27.7081 61.9811 26.8968C60.8173 25.9712 58.8668 25.1369 57.3472 25.346C55.3896 25.5608 54.5832 27.0797 53.4824 28.4787C51.0934 31.5145 47.1214 31.502 44.2504 29.1733C44.9145 29.1219 45.6285 29.1602 46.3225 29.103C48.7554 28.9027 50.8604 28.0413 52.511 26.2032C53.2549 25.3745 53.9342 24.4508 54.8606 23.8155C55.8824 23.1198 57.1394 22.8614 58.3526 23.0975C60.1622 23.4352 61.2268 24.3531 62.2398 25.8182C62.6471 23.5283 61.3265 21.8699 59.1705 21.2388C58.3076 20.9862 57.3702 20.855 56.5326 20.5342C55.8336 20.2664 55.1698 19.7502 54.6084 19.2698Z" fill="#011936"/>
<path d="M47.1617 12.4224C47.4017 12.8159 46.9648 14.6028 46.857 15.0429C45.9461 18.7627 43.2448 21.5687 40.1459 23.637C39.4498 24.1016 38.7423 24.717 38.0204 25.133L37.9976 25.1138C37.9437 24.8932 38.1483 24.1776 38.191 23.8946C39.0212 18.4003 42.0221 14.6486 47.1617 12.4224Z" fill="#011936"/>
<path d="M58.8427 11.2397C59.1891 11.2015 59.5372 11.2078 59.887 11.2051C59.7757 11.5899 59.6079 11.9684 59.4314 12.3268C58.8366 13.5127 58.0494 14.5919 57.1016 15.5203C54.2477 18.313 51.5007 18.5438 47.9769 19.7285C47.659 19.8626 47.2652 19.9848 46.933 20.0966C49.5941 15.0702 52.9775 11.9535 58.8427 11.2397Z" fill="#011936"/>
<path d="M40.1572 29.7679C40.7193 29.6829 42.1391 29.7265 42.7427 29.759L42.7234 29.7994C41.3533 32.591 38.1351 35.1897 35.1596 36.021C33.89 36.3758 32.2609 36.6789 31.0783 37.1018L30.9954 37.1319C30.3424 37.3491 29.7674 37.6968 29.0688 37.88C29.4624 37.0122 30.2722 35.8213 30.8721 35.0634C33.4131 31.8536 36.1235 30.2538 40.1572 29.7679Z" fill="#011936"/>
<path d="M48.4456 21.8767C49.4329 21.7498 51.4108 21.8973 52.3361 22.1711C52.01 22.5869 51.6646 23.0257 51.3072 23.4124C49.3737 25.513 46.7636 26.8671 43.9328 27.2382C42.8092 27.3955 41.5548 27.4257 40.4102 27.4743C39.3573 27.519 38.0009 27.8404 36.9627 28.0862C39.0066 25.7545 42.3524 23.3306 45.3183 22.4629C46.4162 22.1416 47.3111 21.9829 48.4456 21.8767Z" fill="#011936"/>
<path d="M35.1142 18.8342C35.2519 18.9984 35.4025 19.5502 35.449 19.7709C36.1211 22.9594 35.4445 26.1329 33.8088 28.9362C32.8745 30.5374 31.6588 31.977 30.4872 33.4287C30.3881 33.5203 30.4156 33.4968 30.2957 33.5619L30.2408 33.4894C30.249 33.0205 30.1796 32.3381 30.1421 31.8455C30.0395 30.4967 30.0022 29.2886 30.1262 27.9359C30.4225 24.7022 32.5956 20.8964 35.1142 18.8342Z" fill="#011936"/>
<path d="M26.2218 28.3021C26.7563 28.8462 27.3596 30.9258 27.5154 31.7048C28.1538 34.8965 27.4432 37.9579 26.1056 40.8705C25.8513 41.4241 25.4955 42.3761 25.1791 42.8647C24.7358 41.2663 24.0664 39.6844 23.8069 38.0184C23.2984 34.5879 24.1664 31.0954 26.2218 28.3021Z" fill="#011936"/>
<path d="M59.9018 31.3602C60.6501 31.2815 62.2464 31.2576 62.9229 31.6206C63.9907 32.1933 62.8456 33.298 62.8001 34.0466C62.7825 34.3314 62.9574 34.6303 63.0336 34.9036C63.1158 35.1988 63.0829 35.4753 62.9196 35.7378C62.606 36.2424 61.8972 36.5652 61.3298 36.672C60.7696 36.7774 59.8311 36.7509 59.3596 36.4123C59.0954 36.2221 58.8629 35.9579 58.585 35.792C58.17 35.5444 55.2569 36.4652 54.6057 36.6141C55.0974 36.021 56.0101 35.2943 56.6362 34.8228C57.5232 34.2215 57.9661 33.998 58.9507 33.5898C58.4173 33.5696 57.9217 33.5491 57.3954 33.6409C55.9005 33.9018 53.7209 35.161 52.5576 36.154C52.8668 35.5531 53.2423 34.9889 53.6776 34.4721C55.2948 32.5891 57.436 31.5378 59.9018 31.3602Z" fill="#011936"/>
<path d="M21.024 39.0237C21.3225 39.2095 21.6074 39.5218 21.8271 39.7979C23.2372 41.5808 23.987 43.7968 23.9493 46.0696C23.9421 46.8334 23.7867 48.1899 23.7011 48.9732C23.0714 48.3633 22.69 47.9407 22.2211 47.1776C20.8479 44.9431 20.379 41.5629 21.024 39.0237Z" fill="#011936"/>
</svg>
