<svg width="100" height="100" viewBox="0 0 100 100" fill="none" xmlns="http://www.w3.org/2000/svg">
<path d="M66.7985 17.7878C67.3342 17.7649 67.8457 17.7402 68.3829 17.7485C68.7818 18.5731 69.6018 20.405 69.8803 21.22C69.7217 21.8175 69.318 22.7017 69.0745 23.3173C70.195 24.6592 71.0615 25.5299 71.0751 27.3562C71.0945 29.9806 68.8421 31.5291 68.4384 33.9567C68.2693 34.973 69.3007 36.4757 69.1342 37.6073C69.0358 38.7248 68.5075 39.4242 68.3494 40.3888C67.8912 43.1751 67.6923 46.1757 67.2143 48.9419C65.9912 50.1272 64.434 51.1922 63.2508 52.4289C63.1665 52.553 63.1733 52.8661 63.19 52.9944C63.4612 55.0772 63.9099 57.1332 64.3262 59.1909C64.4372 59.738 64.5293 60.2899 64.7199 60.8151C70.0306 61.9135 75.3847 62.79 80.7687 63.4418C80.5964 64.6529 80.3692 66.0472 80.0424 67.2231C78.4146 67.0786 74.8904 67.4786 73.2872 67.7766C61.7073 69.9306 51.0807 76.2585 43.0963 84.8394C41.5241 86.5296 39.9418 88.4082 38.6322 90.2993C36.6064 89.8501 35.3466 89.5328 33.3618 88.7647C33.7421 88.1684 34.3346 87.4139 34.7666 86.8542C35.8661 85.4332 37.0156 84.0515 38.2129 82.7121C45.8192 74.2359 54.1761 68.83 65.277 66.0503C66.6734 65.7042 68.0829 65.411 69.5018 65.1717C69.9096 65.1037 72.6982 64.7477 72.8129 64.6675L72.7647 64.6168C71.9704 64.3707 71.2118 64.2597 70.4028 64.1136C67.6232 63.6125 65.2414 63.6628 62.4471 63.8146C62.4366 62.4298 62.1811 54.3489 61.6889 53.8488C61.4392 53.8619 59.9491 55.2698 59.6187 55.5672C56.0725 58.7647 52.6959 62.2125 49.9838 66.1576C49.5089 66.8477 48.8497 67.7137 48.4793 68.4551C48.6214 64.5016 49.1147 60.4182 50.7927 56.8086L44.0988 50.4435C43.5621 49.9393 43.0207 49.4403 42.4747 48.9461C41.9749 48.4967 41.3399 48.0352 41.0604 47.4253C40.6301 46.4866 40.1863 45.5524 39.7466 44.6184C39.0814 45.0559 37.6882 46.5786 37.6339 47.4043C37.5756 48.287 37.7035 49.6728 37.7885 50.5901C38.266 55.739 39.0163 60.8763 39.7926 65.9885L40.4046 70.0175C40.5417 70.8966 40.7496 72.0547 40.8213 72.9202C34.7843 75.2789 29.4164 79.0796 25.1861 83.9902C24.8459 83.7907 24.1694 83.23 23.8489 82.9635C22.163 81.5755 20.6165 80.0257 19.2313 78.3371C20.0282 77.6963 21.1138 76.9418 21.9596 76.3449C25.3397 73.9485 28.9033 71.8222 32.6174 69.9855C33.9637 69.318 35.2743 68.7761 36.6211 68.1446C36.6111 66.9933 36.4702 65.7194 36.4004 64.5607C36.224 61.6339 35.8635 58.6872 35.659 55.7693C35.0134 55.4845 34.3969 55.2274 33.8111 54.8269C31.9021 53.5206 30.5343 51.2666 30.0971 49.0167C30.4358 48.2135 30.8236 47.6507 31.0735 46.7678C31.5506 45.0822 31.1735 43.7511 30.3528 42.2592C30.0073 43.4358 29.8425 44.6543 29.6426 45.8652C28.2542 44.681 26.6036 43.3526 26.1842 41.4925C25.5631 38.8114 26.9084 36.0514 28.1965 33.841C29.7893 31.1074 31.5559 30.8136 34.4282 31.6546C37.7942 32.6401 40.2155 31.7921 42.1227 28.6972C40.0889 29.6455 38.0614 30.1855 35.8248 29.6593C33.6531 29.1484 32.9906 28.7898 30.7419 29.1089C31.3107 27.8433 31.9369 26.8391 33.0213 25.9604C35.3671 24.0597 38.3798 25.6431 41.0419 25.7175C42.5757 25.7603 43.4734 25.535 44.9115 25.0904C44.8277 25.566 44.6753 26.1832 44.5446 26.6514C44.2475 27.7156 43.98 29.0169 43.6021 30.0448C42.9576 31.7973 41.4989 33.4304 39.9692 34.4622C39.452 34.8111 38.7528 35.1513 38.1924 35.4829C38.1743 36.0072 38.1076 36.5861 38.0647 37.1164C38.444 37.8266 38.9159 38.3293 39.3412 39.2C38.5852 39.3942 38.4303 39.527 37.7058 39.1809C36.7436 38.7687 36.019 39.6304 35.0361 38.946C34.3377 38.4596 33.7263 37.9039 33.0624 37.3714C32.7527 37.1229 32.4705 36.8844 32.618 36.4368C32.9159 35.533 33.6352 34.9641 34.4336 34.5186C34.2367 34.4811 34.0388 34.4492 33.8401 34.4228C30.281 33.9499 29.9892 37.9932 31.7738 40.0712C32.8011 41.3644 34.0989 41.8993 35.6774 42.2628C37.4576 42.6727 38.7481 42.9577 40.2644 41.7015C40.7325 42.4125 42.979 46.4946 43.2979 46.7008C43.8622 47.0659 58.7799 46.6539 60.847 46.8636C61.5816 46.9381 62.313 47.2652 63.0083 47.5074C63.9162 47.8236 64.8288 48.1463 65.7519 48.4143C65.9713 48.2724 66.1037 48.1601 66.3027 47.9954C66.4257 47.4776 66.4959 46.7922 66.5671 46.2538L66.9373 43.4543C67.1122 42.1483 67.2755 40.8407 67.4268 39.5318C67.4918 38.9831 67.7777 38.0027 67.8842 37.4622C68.0311 36.7166 67.9334 36.2412 67.8842 35.4304V34.6057C67.8842 34.6057 67.8842 34.6057 67.7373 32.6039C67.8842 32.3027 67.3284 32.6151 67.1252 32.6193C66.9085 32.4725 64.5697 27.2344 64.2597 26.5622C64.3471 26.2955 64.4513 26.0467 64.5566 25.7869C65.6147 26.2291 67.1598 27.132 68.2305 27.6872C68.0588 26.9581 67.5959 25.9232 67.2834 25.2202C66.9572 24.4879 66.5001 23.3681 66.1278 22.689C65.9948 22.4462 64.844 21.2205 64.6084 20.9622C63.7068 19.9793 62.8167 18.9862 61.9382 17.9829C63.5497 17.8997 65.1854 17.8489 66.7985 17.7878Z" fill="#011936"/>
<path d="M76.6313 71.0877C77.3444 71.0479 77.9418 71.0762 78.6455 71.1243C77.3863 73.9888 75.6978 76.6444 73.638 79.0005C67.0629 86.5395 57.8914 90.3711 48.0283 91.0434C47.456 91.0989 46.538 91.09 45.9617 91.0758C46.9282 89.0375 48.6921 86.5495 50.2136 84.8374C55.2751 79.1435 62.4502 74.5088 69.7379 72.2987C72.0563 71.5961 74.2485 71.2589 76.6313 71.0877Z" fill="#011936"/>
<path d="M52.1918 13.7534C54.9966 13.3235 57.6218 15.645 59.1627 17.7384C57.6899 17.8529 56.194 17.8924 54.7264 18.0449C53.8264 18.1384 52.4509 18.1987 51.7415 18.8023C51.03 19.4074 50.4273 20.2517 49.7608 20.9389C48.3614 22.3812 47.142 22.7053 45.2047 22.9038C44.4156 22.991 43.6224 23.037 42.8285 23.0415C41.2946 23 39.6864 22.7912 38.1508 22.6995C37.3635 22.6524 36.5937 22.648 35.8047 22.6415C36.6276 21.8096 37.669 20.8675 38.755 20.3928C39.415 20.1043 40.3669 20.042 41.0922 19.9552C42.3726 19.8021 43.2222 19.5313 44.3569 18.9276C47.3862 17.316 48.5638 14.1359 52.1918 13.7534Z" fill="#011936"/>
<path d="M57.0809 8.93472C59.2569 8.7511 62.5387 9.77532 64.0068 11.4142C64.888 12.3976 66.0959 14.3294 66.7451 15.5337C64.9985 15.5685 63.1911 15.6632 61.4392 15.7233C61.2596 15.7253 61.0795 15.7354 60.9287 15.633C60.4967 15.3401 60.059 14.9179 59.6658 14.5642C58.5925 13.5987 57.4186 12.8544 56.0285 12.4343C54.5793 11.9961 53.3216 12.0213 51.843 12.0997C53.1782 10.8806 55.2631 9.15949 57.0809 8.93472Z" fill="#011936"/>
<path d="M46.9767 9.46255C48.1899 9.3482 49.9241 9.54679 51.1032 9.81937C48.9916 11.5765 47.0701 12.4947 45.2047 14.8794C44.5446 15.7233 44.3569 16.4413 42.677 17.4112C41.5078 17.996 39.2313 18.4135 39.2313 18.4135C39.2313 18.4135 39.9167 15.1428 40.5417 13.791C41.8581 11.4142 43.5099 9.72172 46.9767 9.46255Z" fill="#011936"/>
<path d="M54.517 23.7945C55.2159 23.7382 56.0034 23.8672 56.7045 23.9385C58.4438 24.1151 59.9983 24.3879 61.6957 24.7748C61.047 26.0828 59.5292 28.1817 58.6522 29.4767C57.9516 29.6248 57.0191 29.7334 56.295 29.8371C56.3202 29.0952 56.2987 28.8913 55.8657 28.3027C54.4143 26.9146 52.9075 27.6762 51.4635 28.5023C50.5425 28.2643 48.8963 27.7781 48.0172 27.6297C49.3105 26.8163 50.6179 26.0262 51.9394 25.2598C52.7059 24.8071 53.7363 24.1633 54.517 23.7945Z" fill="#011936"/>
<path d="M64.2555 32.5322C64.7514 32.4789 66.5373 33.2238 66.9933 33.4758C66.8551 33.8726 65.4273 36.3795 65.1687 36.648C65.0006 36.6925 64.9456 36.6554 64.7812 36.5978L62.5361 35.64C61.9785 35.6155 61.2842 35.6384 60.7114 35.6332C60.4193 35.3136 60.2067 35.0548 59.9397 34.7129C61.1863 34.0145 62.9455 33.2073 64.2555 32.5322Z" fill="#011936"/>
<path d="M62.4188 37.5021C62.8832 37.4379 63.4618 37.8638 63.8534 37.9875C65.2409 38.4252 65.2529 38.2158 65.5655 39.6241C65.8022 40.6918 65.8257 40.9784 65.6896 42.0802C65.3011 41.5148 64.9608 40.8816 64.6095 40.2872L63.2984 39.8349C62.5623 39.6044 62.0267 39.2335 61.2256 39.4097C60.2428 39.6258 59.2857 39.917 58.3051 40.142C58.3428 39.8513 58.4328 39.4652 58.4941 39.1691C59.6868 38.6088 61.1868 38.003 62.4188 37.5021Z" fill="#011936"/>
<path d="M61.8795 41.0555C62.2921 41.0644 64.4801 41.8628 64.9833 42.0493C65.0257 42.8953 65.0859 43.7941 65.0812 44.6364L64.0367 43.7509C63.6696 43.5786 62.9073 43.3524 62.5062 43.2234L59.8575 42.3724C60.5292 41.9301 61.2036 41.4911 61.8795 41.0555Z" fill="#011936"/>
<path d="M36.9017 19.4826C37.6845 18.6998 39.2313 18.4135 39.2313 18.4135C39.2313 18.4135 39.9167 15.1428 40.5417 13.791C40.5417 13.791 40.2974 13.791 38.9504 13.9068C36.6327 14.264 33.3221 15.474 31.9695 17.4364C31.3524 18.3317 30.9546 19.218 30.6818 20.2776C30.581 20.6692 30.4654 21.2235 30.3437 21.5857C24.2987 23.528 23.5563 29.9059 25.2198 35.2399L25.3291 35.6686C25.9632 34.019 26.6849 32.4412 27.8065 31.0551C27.9325 30.8703 29.8343 29.1089 30.7419 29.1089C30.2313 27.4135 29.7872 25.9118 31.3958 24.55C32.5395 23.5817 34.4595 22.6995 35.8047 22.6415C36.3504 21.7957 36.1188 20.2655 36.9017 19.4826Z" fill="#011936"/>
</svg>
